<?xml version="1.0" encoding="utf-8"?>
<!-- Generator: Adobe Illustrator 15.1.0, SVG Export Plug-In . SVG Version: 6.00 Build 0)  -->
<!DOCTYPE svg PUBLIC "-//W3C//DTD SVG 1.1//EN" "http://www.w3.org/Graphics/SVG/1.1/DTD/svg11.dtd">
<svg version="1.1" xmlns="http://www.w3.org/2000/svg" xmlns:xlink="http://www.w3.org/1999/xlink" x="0px" y="0px"
	 width="1077.871px" height="813.02px" viewBox="0 0 1077.871 813.02" enable-background="new 0 0 1077.871 813.02"
	 xml:space="preserve">
<g id="b163acb8-d7e3-44ae-95e8-546cddd31e63">
	<title>work chat</title>
	<path opacity="0.1" fill="#510FA8" enable-background="new    " d="M663.83,111.35c-46.25,39.26-106.24,36.72-158.81,16.29
		C452.45,107.21,404.16,70.85,352.94,45C310,23.33,264.94,9.1,219.33,2.77c-65.28-9.06-138.18,2-183.66,65.44
		c-50.65,70.68-46.76,198.16,8,263c27.87,33,64.36,49.2,96.18,75s61.29,68.56,58.58,118.3c-2.51,46-31.68,81.37-61.87,103.54
		c-23.33,17.13-52.06,35.84-54.87,71.33c-2.72,34.33,21.44,61.24,44.51,76.54c75.26,49.91,168,49.43,243-1.26
		c26.74-18.09,51.3-42.15,79.35-56.23c73.65-37,154.811,0.24,232.799,13.87c66,11.53,133.691,5.55,198-17.479
		c38.621-13.83,77.391-35,104.521-74.36c19.568-28.4,31.76-64.35,43.199-99.85c12.199-37.847,23.93-75.967,35.189-114.36
		c6.75-23.05,13.4-46.54,15.15-71.19c3.16-44.68-10.16-88.85-28.301-126.55C1006.041,138.98,933.5,76.03,854.939,60.04
		c-78.559-15.99-161.67,15.24-222.6,83.58"/>
	<ellipse opacity="0.1" fill="#510FA8" enable-background="new    " cx="489.56" cy="532.53" rx="226.981" ry="10.36"/>
	<path fill="#FFFFFF" d="M481.94,489.75c-113.471,0-205.78-92.31-205.78-205.78c0-113.47,92.28-205.78,205.78-205.78
		c113.5,0,205.75,92.32,205.75,205.78S595.371,489.75,481.94,489.75z M481.94,80.19c-112.37,0-203.78,91.42-203.78,203.78
		c0,112.36,91.38,203.78,203.78,203.78c112.399,0,203.78-91.42,203.78-203.78C685.72,171.61,594.269,80.19,481.94,80.19z"/>
	<path fill="#FFFFFF" d="M481.94,443.57c-88,0-159.61-71.601-159.61-159.601s71.61-159.6,159.61-159.6c88,0,159.6,71.6,159.6,159.6
		C641.541,371.97,569.941,443.57,481.94,443.57z M481.94,126.37c-86.91,0-157.61,70.7-157.61,157.6
		c0,86.9,70.7,157.601,157.61,157.601c86.909,0,157.6-70.7,157.6-157.601C639.541,197.07,568.81,126.37,481.94,126.37z"/>
	<path fill="#FFFFFF" d="M481.94,393.97c-60.752,0-110-49.249-110-110c0-60.751,49.248-110,110-110c60.75,0,110,49.249,110,110
		C591.869,344.691,542.662,393.898,481.94,393.97z M481.94,175.97c-59.647,0-108,48.354-108,108c0,59.647,48.353,108,108,108
		c59.647,0,108-48.354,108-108C589.869,224.353,541.556,176.042,481.94,175.97L481.94,175.97z"/>
	<ellipse opacity="0.1" fill="#510FA8" enable-background="new    " cx="979.99" cy="403.16" rx="14.27" ry="4.72"/>
	<ellipse opacity="0.1" fill="#510FA8" enable-background="new    " cx="178.55" cy="651.82" rx="84.04" ry="13.79"/>
	<g opacity="0.1">
		<path d="M325.87,269.72H69.48c-7.392,0.022-13.378,6.009-13.4,13.4v162c0.022,7.392,6.008,13.378,13.4,13.399h201.13
			c0,0,5.21,27.66-11.91,30.641c0,0,38.34,2.75,31.64-30.641h35.53c7.392-0.021,13.378-6.008,13.399-13.399v-162
			C339.248,275.729,333.262,269.742,325.87,269.72z"/>
		<g opacity="0.2">
			<path d="M99.49,312.72h196.36c3.131,0,5.67,2.539,5.67,5.67v1.32c0,3.131-2.539,5.67-5.67,5.67H99.49
				c-3.132,0-5.67-2.539-5.67-5.67v-1.32C93.82,315.259,96.358,312.72,99.49,312.72z"/>
			<path d="M99.49,369.3h196.36c3.131,0,5.67,2.539,5.67,5.67v1.32c0,3.131-2.539,5.67-5.67,5.67H99.49
				c-3.132,0-5.67-2.539-5.67-5.67v-1.32C93.82,371.838,96.358,369.3,99.49,369.3z"/>
			<path d="M99.49,397.58h162.84c3.131,0,5.67,2.538,5.67,5.67v1.32c0,3.131-2.539,5.67-5.67,5.67H99.49
				c-3.132,0-5.67-2.539-5.67-5.67v-1.32C93.82,400.118,96.358,397.58,99.49,397.58z"/>
			<path d="M99.49,341.01h78.72c3.131,0,5.67,2.539,5.67,5.67V348c0,3.131-2.539,5.67-5.67,5.67H99.49
				c-3.132,0-5.67-2.539-5.67-5.67v-1.32C93.82,343.549,96.358,341.01,99.49,341.01z"/>
		</g>
	</g>
	<path fill="#FFFFFF" d="M328.11,268.6H71.71c-7.392,0.022-13.378,6.008-13.4,13.4v162c0.022,7.392,6.008,13.378,13.4,13.4h201.13
		c0,0,5.22,27.659-11.91,30.63c0,0,38.34,2.75,31.64-30.63h35.541c7.39-0.022,13.373-6.011,13.39-13.4V282
		C341.483,274.61,335.5,268.622,328.11,268.6z"/>
	<g opacity="0.2">
		<path fill="#510FA8" d="M101.73,311.6h196.36c3.132,0,5.67,2.539,5.67,5.67v1.32c0,3.132-2.538,5.67-5.67,5.67H101.73
			c-3.131,0-5.67-2.538-5.67-5.67v-1.32C96.06,314.139,98.599,311.6,101.73,311.6z"/>
		<path fill="#510FA8" d="M101.73,368.18h196.36c3.132,0,5.67,2.539,5.67,5.67v1.32c0,3.131-2.538,5.67-5.67,5.67H101.73
			c-3.131,0-5.67-2.539-5.67-5.67v-1.32C96.06,370.719,98.599,368.18,101.73,368.18z"/>
		<path fill="#510FA8" d="M101.73,396.47h162.84c3.132,0,5.67,2.539,5.67,5.67v1.32c0,3.132-2.539,5.67-5.67,5.67H101.73
			c-3.131,0-5.67-2.538-5.67-5.67v-1.32C96.06,399.009,98.599,396.47,101.73,396.47z"/>
		<path fill="#510FA8" d="M101.73,339.89h78.72c3.131,0,5.67,2.539,5.67,5.67v1.32c0,3.132-2.539,5.67-5.67,5.67h-78.72
			c-3.131,0-5.67-2.538-5.67-5.67v-1.32C96.06,342.429,98.599,339.89,101.73,339.89z"/>
	</g>
	<path fill="#FFD2C6" d="M232.94,266.03l-14.21,30.22c0,0-2.1,5.67-3.45,6.72c-1.35,1.05-7.32,19-7.32,19l-15.23,23.54l0,0l-1,1.6
		l-6-1.65l-4.19-15.67l0.26-4.55v-0.57c0,0,9.43-9.86,11.52-10.61c0,0,1.64,0.19,4.79-7.45s6-9.3,6-9.3l1.64-5.54l17.66-28.11
		c0,0,14.8-21.23,18.83-11.81C246.27,261.27,232.94,266.03,232.94,266.03z"/>
	<path fill="#FFD2C6" d="M173.94,480.68c-0.048,0.514-0.212,1.01-0.48,1.45c-1.64,2.39-10.91,51.29-10.91,51.29
		c0.74,3.3-1.34,9.88-2.7,12.87s-4.34,18.54-4.34,18.54s-0.74,33.5-2.68,38.729c-1.94,5.23,0.62,16.45,0.62,16.45
		c-0.19,5.16,2.91,10.61,4.75,13.391c0.14,0.18,0.25,0.359,0.36,0.51c0.6,0.859,1,1.35,1,1.35c0.502,1.004,1.215,1.888,2.09,2.59
		c0.13,0.11,0.27,0.21,0.42,0.32c2.54,1.708,5.385,2.909,8.38,3.54l0.29,0.06c1.2,0.271,2,0.37,2,0.37l0.74,4l-7.92,1.641l-15.1,1
		c0,0-17.8,1.35-13.76-6.58c0.284-0.542,0.528-1.104,0.73-1.681l0,0c0.15-0.38,0.29-0.779,0.41-1.18
		c2.43-7.62,0.79-16.88,0.79-16.88l-3.48-26.95c-5.67-25.12,4.48-53.09,4.48-53.09s-0.89-2.24,1.06-7.92c1.95-5.68,0-18.09,0-18.09
		s-1-16-2.39-23.93c-0.53-3.329-0.711-6.704-0.54-10.07c0.064-1.976,0.245-3.946,0.54-5.9l34.1-4.52
		C172.4,471.99,174.32,477.51,173.94,480.68z"/>
	<path opacity="0.1" enable-background="new    " d="M173.44,646.19l-7.92,1.64l-15.1,1c0,0-17.8,1.35-13.76-6.58
		c0.284-0.541,0.528-1.103,0.73-1.68l0,0c0.15-0.38,0.29-0.78,0.41-1.181c3.081,0.097,6.124,0.712,9,1.82
		c5.07,2,8.89-3.15,8.89-3.15l2.46-4.699l0.36-0.681c0.6,0.86,1,1.351,1,1.351c0.589,1.155,1.451,2.151,2.51,2.899l-0.42,0.88
		l-2.39,5c0,0,3.06,0.311,7.25,1c1.681,0.456,3.42-0.498,3.94-2.159l0.29,0.06c1.2,0.271,2,0.37,2,0.37L173.44,646.19z"/>
	<path fill="#626696" d="M180.77,649.92c-0.6,2.69-17.27,3.521-17.27,3.521s-9.28-0.9-11.88,1.27s-10.26,1.65-10.56,1.65
		c-0.3,0-4.33-0.16-5.91-7.4c-1.53-7.06,2.06-8.29,2.24-8.35l0,0c3.227,0.044,6.42,0.664,9.43,1.83c5.07,2,8.89-3.141,8.89-3.141
		l2.82-5.39c0.6,0.859,1,1.35,1,1.35c0.584,1.162,1.446,2.162,2.51,2.91l-2.81,5.91c0,0,3.06,0.31,7.25,1
		c3.35,0.54,4.08-2.19,4.23-3.29c0.01-0.149,0.01-0.3,0-0.45c0,0,2.61,0.75,5.82,1.65C179.53,643.847,181.374,646.859,180.77,649.92
		z"/>
	<path fill="#FFD2C6" d="M212.18,516.32c-0.4,2.39-0.81,8.58-0.81,8.58c1.4,5.18-2.19,17.489-2.19,17.489l-1.79,7
		c0.8,9-4.93,30.91-4.93,30.91s-3.84,20.34-5.84,29.12c-1.193,4.872-0.844,9.995,1,14.66c0.1,0.24,0.16,0.359,0.16,0.359
		c0,0.171,0.07,0.33,0.12,0.49c0.05,0.16,0.13,0.48,0.21,0.71c0.459,1.226,1.137,2.357,2,3.341c0.329,0.393,0.686,0.761,1.07,1.1
		l0.06,0.06c1.877,1.662,4.029,2.985,6.36,3.91l0,0l1,0.4c1.037,0.392,2.096,0.726,3.17,1l0,0c0.118,0.033,0.239,0.06,0.36,0.08
		l-0.81,4.7l-10.56-2.7l-14.15-4.591l-7-4c0,0,0.08-0.38,0.22-1.109c0,0,0-0.08,0-0.12c0.06-0.31,0.12-0.68,0.21-1.1
		c1.19-6.101,3.9-23.4,2.54-36.101c-1.69-15.75,4.87-37.49,6.47-42.67c0.948-2.96,1.354-6.065,1.2-9.17
		c-2.6-3.8-3.2-18.939-3.2-18.939s-4.78-9.78-8.74-20.15c-1.307-3.387-2.261-6.898-2.85-10.48c-0.461-2.525-0.655-5.093-0.58-7.659
		c0,0,32.12-29.311,35.64-0.931c0.12,1,0.23,1.88,0.34,2.78C213.94,509.23,212.56,514.01,212.18,516.32z"/>
	<path opacity="0.1" enable-background="new    " d="M212.18,635.56l-0.81,4.7l-10.56-2.7l-14.15-4.59l-7-4
		c0,0,0.08-0.38,0.22-1.109c0,0,0-0.08,0-0.12c0.06-0.311,0.12-0.681,0.21-1.101l1-0.1h0.08c2.012-0.187,4.04,0.087,5.93,0.8
		c2.3,0.87,5.32,1.86,5.94,1.44c1.069-0.458,2.229-0.664,3.39-0.601l1.47-3.22l0.21-0.49c0.457,1.227,1.134,2.359,2,3.341
		c0.349,0.413,0.726,0.801,1.13,1.159l-0.06,1.141l-0.08,1.609c1.578,1.012,3.288,1.802,5.08,2.351c0.466,0.116,0.954,0.116,1.42,0
		l0,0l1,0.399c1.038,0.392,2.096,0.726,3.17,1l0,0C211.905,635.509,212.042,635.539,212.18,635.56z"/>
	<path fill="#626696" d="M206.94,645.59c-2.95-0.85-10.06-2.2-11.21-1.149c-1.15,1.05-11,0-11,0c-2.105-0.038-4.038-1.177-5.09-3
		c-2-3.19-0.39-13.511-0.39-13.511l0.73-0.069l1.22-0.12h0.08c2.012-0.192,4.041,0.082,5.93,0.8c2.3,0.86,5.32,1.85,5.94,1.44
		c1.067-0.464,2.229-0.669,3.39-0.601l1.68-3.71c0.458,1.226,1.136,2.357,2,3.34c0.348,0.413,0.726,0.801,1.13,1.16l-0.14,2.75
		c1.58,1.006,3.289,1.793,5.08,2.34c0.893,0.365,1.918,0.042,2.44-0.77c0.08-0.127,0.141-0.266,0.18-0.41l0,0
		c0.09,0.17,1.06,0.5,4.17,1.39l0,0c3.38-0.189,6.64,1.28,8.14,5.86S209.83,646.43,206.94,645.59z"/>
	<path opacity="0.1" enable-background="new    " d="M173.94,480.68c-0.66,0.19-1.26,0.37-1.82,0.551
		c-1.439,0.44-2.916,0.752-4.41,0.93c-9.43,1.33-25,0.53-29.93,0.22c0.064-1.976,0.245-3.945,0.54-5.9l34.1-4.52
		C172.42,471.96,174.32,477.51,173.94,480.68z"/>
	<path fill="#626696" d="M203.66,472.4c0,0-12.52,1.939-22.7,4.17c-3.4,0.739-6.54,1.51-8.86,2.27
		c-1.442,0.432-2.917,0.742-4.41,0.93c-11.34,1.591-31.48,0.12-31.48,0.12c-5.53-17.939,6.72-40.529,6.72-40.529
		c-0.29-1.801,2.55-7.32,2.55-7.32l0.05-0.18l1.74-6.4h46.51l0.57,2.75l1.18,5.6l7.3,34.671L203.66,472.4z"/>
	<path opacity="0.1" enable-background="new    " d="M210.86,483.28l-0.28,0.12l-5.44,2.409c-5.89,2.721-23.52,3.23-29.68,3.28
		c-0.461-2.525-0.655-5.093-0.58-7.66c0,0,32.12-29.31,35.64-0.93C210.64,481.51,210.75,482.38,210.86,483.28z"/>
	<path fill="#626696" d="M211.72,480.51l-1.14,0.5l-5.44,2.42c-6,2.761-24.19,3.25-30,3.28h-1.53c-2.69-0.09-5.38-2.61-5.38-3.27
		c0-0.36-0.28-2.131-0.52-3.65c-0.2-1.22-0.38-2.271-0.38-2.271s-12-5.18-18.09-9.369c-4.57-3.11-3.42-25.21-2.53-36.32
		c0.31-3.83,0.58-6.351,0.58-6.351l47.08,2.75l6.6,0.381l3.78,0.84l1,0.21c0,0,2.7,19.74,4,21.38s0.46,7.18,0.3,10.33
		c-0.006,1.345-0.153,2.686-0.44,4c0,0,1.94,5.54,1.48,8.64C210.884,476.197,211.098,478.403,211.72,480.51z"/>
	<circle fill="#FFD2C6" cx="161.33" cy="297.29" r="19.29"/>
	<path fill="#FFD2C6" d="M151.94,305.34c0,0,1.34,18.27-2.39,22.46c-3.73,4.19-13.46,12.11-13.46,12.11l3,12.41l16.9,1.95
		l19.74-21.09l-4.49-5.53c0,0-3.44-11.67-0.6-17.5C173.48,304.32,151.94,305.34,151.94,305.34z"/>
	<path opacity="0.1" enable-background="new    " d="M192.73,345.51L192.73,345.51l-1,1.6l-6-1.65l-4.19-15.67l0.26-4.55l1.23-1.77
		c0,0,6.58,0.16,6.29,6.14C189.03,334.86,192.02,343.51,192.73,345.51z"/>
	<path opacity="0.1" enable-background="new    " d="M205.74,432.04c0,0-4.76,1.06-10.21,1.77c-5.45,0.71-11.74,1.07-14.32-0.43
		c-4.33-2.56-27.79-1.83-34.52-1.57c-0.48,0-0.86,0-1.16,0.051l1.74-6.4h46.51l0.57,2.75l6.6,0.38l3.78,0.84
		C205.36,430.98,205.74,432.04,205.74,432.04z"/>
	<path fill="#FFCDE5" d="M181.82,324.66c0,0,6.58,0.15,6.28,6.13c-0.3,5.98,3.59,16.3,3.59,16.3l-1.5,3.44c0,0-2.09,8.37-0.45,10.47
		c1.64,2.1,7.63,2.09,4.19,19.29c0,0-0.74,12.86,1.05,17.05c1.79,4.19,1.79,14.2,4.48,18.391c2.69,4.189,6.29,13.909,6.29,13.909
		s-19.45,4.33-24.53,1.341c-5.08-2.99-36.34-1.471-36.34-1.471s0.15-5.24,0-5.83c-0.276-1.322-0.006-2.7,0.75-3.819
		c1-1.42,2.69-3.811,1.79-5.9s2.25-5.18,0.6-8.42s-3.65-3.89-3.25-5.66c0.4-1.77-0.64-4.17-1.83-5.66
		c-1.19-1.49-9.28-17.3-9.28-17.3l-1.34-7.41c0,0-10.41-7.63-10.22-11.22s3.94-8.56,3.94-8.56l10-9.83c0,0,5.53,6,10.91,3.89
		c5.38-2.11,16.99-12.11,16.99-12.11s4.14-2.24,4.44-3.88c0.3-1.64,2.84-0.15,2.84-0.15s3.74-2.05,4.49-1.33
		c0.75,0.72,4,1.33,4,1.33L181.82,324.66z"/>
	<path fill="#FFD2C6" d="M125.29,355.81l-3.19,2.49c0,0-3.24,5.84-4,16.3c-0.76,10.46-4,25.26-4,25.26l-6.28,11.229
		c0,0-10.35,21.67-11.69,27.42c-1.34,5.75-7.48,15.48-7.48,15.48s-20.79,18.68-6.28,22c14.51,3.319,14.95-14.87,14.95-14.87
		s3.39-3.74,3.94-6.28c0.55-2.54,18.94-35.07,18.94-35.07s6.44-8.75,5.09-13.38c0,0,8.37-19.689,8.37-24.63
		c-0.158-4.109-0.606-8.203-1.34-12.25l1.34-10.32L125.29,355.81z"/>
	<path opacity="0.1" enable-background="new    " d="M168.36,397.04c0,0-14.66,7.67-17.5,8.07c-2.84,0.399,12.41-1.601,12.41-1.601
		L168.36,397.04z"/>
	<path opacity="0.1" enable-background="new    " d="M180.32,403.02c0,0-19.44,6.58-28,5.381
		C152.36,408.4,173.59,412.44,180.32,403.02z"/>
	<path opacity="0.1" enable-background="new    " d="M181.52,405.17c0,0-17.5,11-27.82,9.21c0,0,24.08,4.79,27.82,2.25l-10.77-3
		C170.75,413.63,182.72,407.31,181.52,405.17z"/>
	<path opacity="0.1" enable-background="new    " d="M161.36,263.35c-5.06-1-10.67-0.4-14.72,2.78c-3,2.36-5,6-8.37,7.72
		c-1.784,0.75-3.61,1.395-5.47,1.93c-6.754,2.759-10.736,9.788-9.63,17c0.53,3,1.92,5.7,2.6,8.62c1.22,5.22,0.15,10.69-1.18,15.88
		c-3.688,14.423-9.288,28.29-16.65,41.229c-0.586,0.801-0.88,1.779-0.83,2.771c0.175,0.666,0.52,1.276,1,1.77
		c6.91,8,18.16,10.73,28.72,11.09c3.89,0.13,8,0,11.38-1.89c2.203-1.266,4.099-3.004,5.55-5.09c3.686-5.031,5.516-11.183,5.18-17.41
		c-0.29-5-2-10.09-0.71-14.94c0.137-0.678,0.447-1.308,0.9-1.83c1.14-1.16,3-0.86,4.64-1.05c4.39-0.51,7.23-5.14,7.75-9.52
		s-0.58-8.81-0.6-13.22c-0.023-5.84,1.8-11.539,5.21-16.28c1.46-2,3.33-4,3.82-6.51c0.62-3.15-1.21-5.47-2.79-8
		c-2.45-3.88-3.65-8.41-7.38-11.37C167.298,265.164,164.415,263.904,161.36,263.35z"/>
	<path fill="#985C7E" d="M160.16,262.15c-5.05-1-10.67-0.4-14.72,2.79c-3,2.35-5,6-8.37,7.72c-1.78,0.749-3.603,1.39-5.46,1.92
		c-6.755,2.759-10.741,9.787-9.64,17c0.53,3,1.92,5.7,2.61,8.63c1.22,5.22,0.14,10.68-1.18,15.87
		c-3.68,14.422-9.27,28.288-16.62,41.23c-0.588,0.796-0.878,1.772-0.82,2.76c0.169,0.669,0.514,1.28,1,1.77
		c6.92,8,18.16,10.73,28.72,11.09c3.89,0.14,8,0,11.38-1.88c2.204-1.27,4.099-3.011,5.55-5.1c3.666-5.024,5.485-11.16,5.15-17.37
		c-0.29-5-2-10.09-0.7-14.95c0.134-0.676,0.44-1.307,0.89-1.83c1.14-1.16,3-0.86,4.65-1c4.39-0.51,7.22-5.14,7.74-9.53
		s-0.57-8.8-0.6-13.22c-0.038-5.856,1.783-11.573,5.2-16.33c1.46-2,3.32-4,3.81-6.52c0.62-3.15-1.2-5.46-2.78-8
		c-2.45-3.88-3.65-8.41-7.39-11.36C166.102,263.967,163.217,262.703,160.16,262.15z"/>
	<path opacity="0.1" enable-background="new    " d="M153.7,449.13c0,0,3.84,17.94,10.22,22.83L153.7,449.13z"/>
	<g opacity="0.1">
		<path d="M123.11,295.58c-0.2-0.7-0.43-1.4-0.67-2.09C122.64,294.19,122.87,294.89,123.11,295.58z"/>
		<path d="M177.67,279.92c0.047,0.564,0.021,1.133-0.08,1.69c-0.5,2.53-2.36,4.5-3.82,6.52c-3.413,4.736-5.237,10.433-5.21,16.27
			c0,4.42,1.11,8.83,0.59,13.22c-0.52,4.39-3.35,9-7.74,9.53c-1.62,0.19-3.51-0.12-4.64,1c-0.453,0.522-0.763,1.153-0.9,1.83
			c-1.27,4.86,0.42,9.94,0.7,14.95c0.338,6.209-1.478,12.344-5.14,17.37c-1.454,2.086-3.349,3.828-5.55,5.1
			c-3.43,1.85-7.49,2-11.39,1.88c-10.38-0.35-21.42-3-28.36-10.71c-0.185,0.456-0.244,0.954-0.17,1.44
			c0.169,0.669,0.514,1.28,1,1.771c6.92,8,18.16,10.729,28.72,11.09c3.89,0.14,8,0,11.38-1.88c2.202-1.272,4.096-3.014,5.55-5.1
			c3.666-5.024,5.485-11.16,5.15-17.37c-0.29-5-2-10.09-0.7-14.95c0.134-0.676,0.44-1.307,0.89-1.83c1.14-1.16,3-0.86,4.65-1
			c4.39-0.51,7.22-5.14,7.74-9.53s-0.57-8.8-0.6-13.22c-0.025-5.836,1.795-11.53,5.2-16.271c1.46-2,3.32-4,3.81-6.52
			C179.065,283.367,178.68,281.482,177.67,279.92z"/>
	</g>
	<path fill="#510FA8" d="M521.27,763.98c0,0-38.05-2.301-33.56,24.359c0,0-0.89,4.71,3.38,6.85c0,0,0.07-2,3.9-1.3
		c1.363,0.229,2.75,0.297,4.13,0.2c1.869-0.129,3.645-0.862,5.06-2.09l0,0c0,0,10.69-4.42,14.851-21.9c0,0,3.08-3.81,3-4.79
		l-6.42,2.74c0,0,2.189,4.63,0.46,8.48c0,0-0.2-8.311-1.44-8.11c-0.25,0-3.33,1.6-3.33,1.6s3.771,8.07,0.92,13.931
		c0,0,1.08-9.94-2.1-13.341l-4.521,2.631c0,0,4.41,8.34,1.42,15.14c0,0,0.771-10.43-2.369-14.49l-4.101,3.19
		c0,0,4.15,8.21,1.62,13.85c0,0-0.33-12.14-2.51-13c0,0-3.58,3.15-4.12,4.45c0,0,2.83,6,1.07,9.11c0,0-1.08-8.091-2-8.12
		c0,0-3.57,5.359-3.94,9c0.172-3.397,1.23-6.689,3.07-9.55c-2.058,0.389-3.956,1.373-5.46,2.83c0,0,0.55-3.79,6.34-4.12
		c0,0,3-4.061,3.74-4.311c0,0-5.761-0.479-9.25,1.07c0,0,3.069-3.58,10.31-2l4-3.3c0,0-7.58-1-10.8,0.109c0,0,3.7-3.17,11.89-0.859
		l4.4-2.641c0,0-6.46-1.39-10.311-0.89c0,0,4.061-2.19,11.601,0.19l3.149-1.421c0,0-4.739-0.93-6.119-1.069
		c-1.381-0.141-1.46-0.53-1.46-0.53c2.998-0.499,6.077-0.153,8.89,1C514.66,766.88,521.38,764.4,521.27,763.98z"/>
	<ellipse opacity="0.1" fill="#510FA8" enable-background="new    " cx="495.06" cy="797.52" rx="26.931" ry="4.55"/>
	<path fill="#510FA8" d="M819.38,731.38c0,0-38-2.29-33.561,24.37c0,0-0.891,4.71,3.381,6.85c0,0,0.068-2,3.898-1.31
		c1.369,0.229,2.758,0.296,4.141,0.2c1.867-0.125,3.641-0.859,5.051-2.09l0,0c0,0,10.699-4.41,14.85-21.891c0,0,3.08-3.82,3-4.8
		l-6.461,2.8c0,0,2.191,4.63,0.471,8.48c0,0-0.211-8.32-1.439-8.12c-0.25,0-3.34,1.6-3.34,1.6s3.77,8.07,0.93,13.94
		c0,0,1.08-9.94-2.111-13.351l-4.52,2.641c0,0,4.41,8.33,1.42,15.13c0,0,0.771-10.43-2.369-14.49l-4.09,3.17
		c0,0,4.139,8.221,1.609,13.86c0,0-0.33-12.15-2.5-13.061c0,0-3.58,3.16-4.129,4.46c0,0,2.84,6,1.08,9.101c0,0-1.08-8.08-2-8.12
		c0,0-3.57,5.36-3.941,9c0.174-3.398,1.236-6.69,3.08-9.55c-2.061,0.39-3.961,1.374-5.469,2.83c0,0,0.559-3.78,6.35-4.12
		c0,0,3-4.061,3.74-4.311c0,0-5.76-0.479-9.26,1.07c0,0,3.078-3.58,10.309-1.95l4-3.3c0,0-7.59-1-10.799,0.11
		c0,0,3.699-3.16,11.889-0.86l4.4-2.63c0,0-6.469-1.4-10.32-0.89c0,0,4.061-2.19,11.611,0.18l3.148-1.41c0,0-4.738-0.93-6.129-1.08
		c-1.391-0.149-1.461-0.53-1.461-0.53c3.002-0.499,6.084-0.152,8.9,1C812.74,734.31,819.5,731.8,819.38,731.38z"/>
	<ellipse opacity="0.1" fill="#510FA8" enable-background="new    " cx="793.169" cy="764.92" rx="26.93" ry="4.55"/>
	<ellipse opacity="0.1" fill="#510FA8" enable-background="new    " cx="848.089" cy="436.83" rx="77.551" ry="12.72"/>
	
		<linearGradient id="SVGID_1_" gradientUnits="userSpaceOnUse" x1="781.7681" y1="433.1748" x2="781.7681" y2="830.1162" gradientTransform="matrix(1 0 0 -1 55.9102 874.5293)">
		<stop  offset="0" style="stop-color:#808080;stop-opacity:0.25"/>
		<stop  offset="0.54" style="stop-color:#808080;stop-opacity:0.12"/>
		<stop  offset="1" style="stop-color:#808080;stop-opacity:0.1"/>
	</linearGradient>
	<path fill="url(#SVGID_1_)" d="M938.38,186c3.17-10.63,0-21.26,0-21.26v-10c0,0,3.619-19.61-12.5-32.19l-10.701-9.43
		c0,0-6-5.14-7.729-5.47c-0.33-0.071-0.664-0.122-1-0.15l-0.32-0.18c-0.918-1.574-1.701-3.224-2.34-4.93
		c1.402,0.179,2.809-0.301,3.809-1.3c0.387-0.443,0.691-0.951,0.9-1.5l0,0c0.621-1.39,0.721-3.07,1.25-4.55
		c0.463-1.202,1.141-2.311,2-3.27c-0.109,0.18-0.219,0.35-0.32,0.53c1.51-1.88,3.49-3.5,4.9-5.49
		c0.285-0.391,0.545-0.798,0.781-1.22l-0.211,0.25c2-3.16,2.57-7,3.141-10.68c0.273-1.257,0.295-2.556,0.059-3.82
		c-0.271-0.841-0.629-1.652-1.068-2.42c-2.32-4.8-2.271-10.82-6-14.65c-2.791-2.87-7-3.75-11-4.24c-4-0.49-8.17-0.771-11.592-2.86
		c-0.957-0.724-2.016-1.307-3.139-1.73c-1.174-0.406-2.469,0.076-3.09,1.15c-0.07,0.305-0.211,0.589-0.41,0.83
		c-0.363,0.21-0.805,0.236-1.189,0.07l-5.301-1.42l0.061,0.27h-0.131l0.189,0.84c0.17,0,0.352,0,0.5,0.29l-0.85,1.31
		c-1.645-0.03-3.27-0.37-4.789-1c-0.006,0.086-0.006,0.173,0,0.26h-0.07c-0.1,1.5,1.6,2.47,2.119,3.88
		c0.211,0.616,0.211,1.284,0,1.9c-0.221,0.572-0.562,1.09-1,1.52c-1.889,1.86-4.289,1.49-6.459,2.67
		c-0.381,0.158-0.67,0.477-0.791,0.87c-0.082,0.146-0.107,0.317-0.07,0.48c0.084,0.226,0.238,0.419,0.441,0.55
		c0.631,0.509,1.324,0.938,2.059,1.28l-0.619,0.6c-9.188,9.354-9.053,24.384,0.301,33.572c2.264,2.223,4.949,3.97,7.898,5.138
		c0.08,0.41,0.141,0.83,0.201,1.28c0,0,0,0.08,0,0.12l0.061,0.57l-7.15,3c-2.199-0.015-4.193-1.296-5.121-3.29
		c-1.66-3.44-7.529,0-7.529,0s-17.93-1.35-24.561,1.95c0,0-10.699-4.49-12.199-4.79c-1.5-0.3-3.77-1.5-4.83-1.2
		c-1.061,0.3-2.41-2-3.16-1.8c-0.75,0.2-1-1.49-3.461-2.09c-2.459-0.6-3.318,0.15-6-2.55c-2.68-2.7-24.709-13.32-24.709-13.32
		l-9.939-8.09l-10.551-8.38l-0.189,0.35c-0.061-0.25-0.131-0.51-0.201-0.78c-1.037-4.18-2.342-8.289-3.91-12.3
		c-0.68-1.62-1-3.67-1.889-2.59c-0.561,0.65-1.521-0.77-3-1.73c-1.129-0.786-2.682-0.509-3.467,0.62
		c-0.102,0.144-0.186,0.298-0.254,0.46l0,0c-8.209,12.87-11.15,13.8-6.391,18.51c4.23,4.2,7.051,7.91,10.512,9l0.408,0.13
		c-0.074,0.015-0.152,0.015-0.229,0l20,23.95c0,0,14.459,12.58,24.41,16.62c9.949,4.04,9.189,5.24,9.189,5.24
		s30.129,15.27,34.799,15s3.771,31.29,1.811,36.38c-1.959,5.09-5.119,41.92-5.119,41.92s-3,7.78,0.15,13.17
		c0,0,0.699,10.32,0.068,12.79c-2.75,4.23-6.658,11.41-7.299,18.8c0,0.39-0.08,0.76-0.121,1.14c-0.199,0.234-0.439,0.431-0.709,0.58
		c0,0,0.26-0.06,0.67-0.2c-0.299,3.07-0.971,6.092-2,9c-1.602,4.148-2.436,8.553-2.461,13v23.79l-1.988,14.75
		c0,0-2.41,11.17,0,13.771c1.021,1.299,1.496,2.946,1.318,4.59c-0.102,1.905,0.441,3.79,1.541,5.35c0.848,0.93,1.217,2.201,1,3.44
		c-0.801,2.59,1.18,30.13,1.18,30.13s-0.58,7.59-1.381,8c-0.799,0.41,1.342,8.72,1.342,8.72s-8.141,6.79-6.07,10.391l2.08,3.189
		l-0.551,0.54l-0.34,0.34c-0.625-0.362-1.355-0.499-2.07-0.39c-2.555,2.62-5.291,5.056-8.189,7.29
		c-3.67,2.649-13.66,6.49-13.66,6.49l-7.881,0.64h-0.148c0,0-3.771-0.35-1.66,5.49c2.109,5.84,21,4,21,4l11-1.74
		c0,0,19.68,0.09,25.309-1.15c2.361-0.529,2.92-1.779,2.771-3.06l0,0l-0.061-0.06c-0.268-1.216-0.818-2.35-1.609-3.311
		c-0.043-0.06-0.09-0.116-0.141-0.17l0.359-4c8.35-4.81-2.359-14.28-2.359-14.28s3.66-8,5.549-10.57
		c1.891-2.57,1.881-40.72,1.881-40.72s1-13.78-1.609-17c-0.092-2.116,0.988-4.109,2.809-5.19c1.861-1.27,7.48-18.76,11.891-33.28
		l2.779,17.11c0,0-0.6,8.18,1.211,10.58c0.68,0.911,0.947,2.063,0.74,3.18c-0.441,2.308-0.301,4.69,0.41,6.93
		c0.201,0.957,0.711,1.82,1.449,2.46c1.611,0.8,1.711,3.65,2.311,4.25c0.6,0.6,4.32-0.85,4.52,1.34c0.115,1.928,0.115,3.862,0,5.79
		l1.211,35.53c0,0-2,3-2.41,10.78c-0.17,3.359-0.801,5.27-1.451,6.359c-0.74,1.203-0.619,2.748,0.301,3.82l0.35,0.4l-1.49,1.149
		c-1.215,0.947-1.6,2.617-0.92,4c-0.98,0.855-1.348,2.218-0.93,3.45c0.072,0.193,0.16,0.381,0.26,0.561
		c-1.127,0.178-2.172,0.693-3,1.479c-1.482,2.041-3.27,3.843-5.299,5.34c-2.953,2.255-5.777,4.672-8.461,7.24
		c-1.262,1.748-2.967,3.129-4.939,4c-0.482,0.194-0.98,0.342-1.49,0.44c-4,0.81-2.711,4.949,0.5,5.6c3.209,0.65,13.859,3.94,22.15,2
		c0,0,2.459,1,6.07-0.84c3.609-1.84,11.828-4,11.828-4s4.521,0,5.121-1.8c0.162-0.57,0.248-1.158,0.26-1.75l0.131-0.12l-0.121-0.11
		c0.012-1.34-0.094-2.678-0.311-4c-0.109-0.68-0.238-1.3-0.359-1.79c-0.391-1.5-1.1-3.43-1.41-4.25
		c0.053-0.065,0.1-0.136,0.141-0.21c1.721-2.91-1.141-10-1.141-10c0.947-1.483,2.096-2.83,3.41-4c1.609-1.189,5.83-32.33,5.83-32.33
		s-0.199-8,2-11.58c2.201-3.58-3-25.35-3-25.35s-2.209-5-1.4-6.79c0.811-1.79-0.809-8.38-0.809-8.38v-7.86
		c-0.004-0.938-0.158-1.871-0.461-2.76c-0.619-1.85-1.539-5.4-0.539-8c1.408-3.59,4.619-25.75,4.619-25.75s-2.51-9.77,1.16-17.55
		c0.295-0.624,0.629-1.228,1-1.81c2.721-4.28,1.91-11.88,0.57-18c-0.211-0.95-0.43-1.86-0.65-2.73c-0.1-0.37-0.199-0.72-0.291-1.07
		l0.432-0.18c0,0,0-0.59,0.129-1.58c3.008-0.584,5.635-2.396,7.25-5c0,0,9.189-10.33,17.33-14.67c8.141-4.34,8.74-10.63,8.74-10.63
		c-1.209-2.1,2.15-10.63,2.15-10.63L938.38,186z M911.91,199.77l-8.699,10.09c-0.004-0.02-0.004-0.04,0-0.06
		c-2.26-3.14,2.109-10.18,2.109-10.18l7.189-16.11c-0.059,2.08-0.309,3.9-0.939,4.76c-2,2.7,3.609,7.19,3.609,7.19
		c-3.01-0.03-3.309,4.31-3.309,4.31H911.91z"/>
	<path fill="#CC818C" d="M758.679,67.51l-4.738,9.21c-1.506-0.124-2.99-0.433-4.422-0.92c-4.586-1.38-8.363-4.655-10.379-9
		c-4.24-9.38,2.779-15.44,6.051-17.22c3.27-1.78,6.299-3.83,8.75,2c1.543,3.988,2.832,8.069,3.859,12.22
		C758.339,66.02,758.679,67.51,758.679,67.51z"/>
	<path fill="#CC818C" d="M909.599,115.51l-7.58,11.31c0,0-35.859,17.1-29-3c3-8.85,3.371-15.33,2.83-19.81c0,0,0-0.08,0-0.12
		c-0.699-5.6-2.809-8-2.809-8s34.949-17.88,29.75-5.65c-1.061,2.543-1.486,5.306-1.24,8.05c0.432,3.953,1.719,7.764,3.77,11.17
		C906.541,111.615,907.974,113.642,909.599,115.51z"/>
	<path fill="#444053" d="M898.74,339.3c0,0,5.16,21.62,3,25.19c-2.16,3.57-2,11.5-2,11.5s-4.17,30.95-5.76,32.14
		c-1.303,1.172-2.438,2.518-3.369,4c0,0,2.828,7,1.129,9.9c-0.256,0.448-0.654,0.8-1.129,1c-2.66,1.12-12.48-3.851-18.07-6.9
		c-0.705-0.376-1.234-1.011-1.48-1.77c-0.426-1.219-0.066-2.574,0.91-3.42c-0.68-1.382-0.299-3.049,0.91-4l1.469-1.141l-0.34-0.399
		c-0.91-1.069-1.031-2.602-0.299-3.801c0.639-1.08,1.26-3,1.43-6.31c0.4-7.74,2.379-10.71,2.379-10.71l-1.189-35.31
		c0.109-1.915,0.109-3.835,0-5.75c-0.199-2.18-3.869-0.74-4.459-1.34c-0.592-0.6-0.701-3.42-2.281-4.22
		c-0.732-0.634-1.238-1.491-1.439-2.44c-0.701-2.228-0.842-4.594-0.41-6.89c0.207-1.109-0.059-2.254-0.73-3.16
		c-1.789-2.38-1.189-10.51-1.189-10.51l-2.74-17c-4.359,14.43-9.91,31.81-11.74,33.07c-1.805,1.078-2.871,3.06-2.779,5.16
		c2.58,3.17,1.59,16.86,1.59,16.86s0,37.88-1.859,40.46c-1.861,2.58-5.48,10.51-5.48,10.51s10.629,9.461,2.27,14.23l-0.09,0.05
		c-8.529,4.76-26.18-8.52-26.18-8.52l1.84-1.84l0.539-0.54l-2-3.181c-2.049-3.569,6-10.31,6-10.31s-2.139-8.33-1.35-8.73
		c0.791-0.4,1.35-7.94,1.35-7.94s-1.949-27.37-1.158-29.94c0.236-1.224-0.111-2.489-0.941-3.42c-1.08-1.553-1.615-3.42-1.52-5.31
		c0.176-1.631-0.291-3.266-1.301-4.56c-2.379-2.58,0-13.69,0-13.69l2-14.68v-23.38c0-4.482,0.812-8.928,2.4-13.12
		c1.199-3.405,1.926-6.958,2.16-10.56c0.65-7.52,4.689-14.83,7.41-19c1.439-2.2,2.51-3.52,2.51-3.52l63.471-2.49c0,0,1,2.83,2,6.76
		c0.219,0.86,0.439,1.76,0.639,2.71c1.33,6.1,2.131,13.65-0.559,17.91c-0.377,0.571-0.711,1.17-1,1.79
		c-3.631,7.73-1.15,17.44-1.15,17.44s-3.17,22-4.561,25.59c-1,2.53-0.08,6.06,0.541,7.9c0.293,0.884,0.445,1.809,0.449,2.74v7.81
		c0,0,1.59,6.54,0.801,8.33C896.589,334.34,898.74,339.3,898.74,339.3z"/>
	<path opacity="0.1" enable-background="new    " d="M901.66,261.51c-0.369,0.576-0.703,1.173-1,1.79l-3.57-0.2
		c0.34-1.84-2.09-19.09-2.09-19.09l7.201-0.41C903.541,249.74,904.349,257.3,901.66,261.51z"/>
	<path fill="#444053" d="M902.25,260.96c-0.375,0.572-0.711,1.17-1,1.79l-3.58-0.2c0.35-1.84-2.08-19.1-2.08-19.1l7.191-0.4
		C904.14,249.15,904.939,256.7,902.25,260.96z"/>
	<path opacity="0.05" enable-background="new    " d="M902.25,260.96c-0.375,0.572-0.711,1.17-1,1.79l-3.58-0.2
		c0.35-1.84-2.08-19.1-2.08-19.1l7.191-0.4C904.14,249.15,904.939,256.7,902.25,260.96z"/>
	<path opacity="0.1" enable-background="new    " d="M891.74,422c-0.256,0.448-0.654,0.8-1.129,1c-2.66,1.12-12.48-3.85-18.07-6.9
		c-0.705-0.376-1.234-1.01-1.48-1.77c3.18-0.58,5.27,3,5.27,3c2.193-1.38,5.088-0.722,6.469,1.471
		c0.023,0.039,0.049,0.079,0.072,0.119c2.729,4,8.58,2.32,8.58,2.32S891.57,421.51,891.74,422z"/>
	<path fill="#FF748F" d="M893.39,434.16c-0.6,1.78-5.061,1.78-5.061,1.78s-8,2.29-11.561,4.069c-3.559,1.78-6,0.84-6,0.84
		c-8.189,1.891-18.699-1.38-21.869-2c-3.17-0.619-4.42-4.76-0.5-5.55c0.504-0.102,0.996-0.252,1.471-0.45
		c1.955-0.871,3.641-2.253,4.879-4c2.65-2.55,5.438-4.953,8.35-7.199c2.012-1.485,3.779-3.273,5.24-5.301c4.66-4.119,8,1.54,8,1.54
		c2.193-1.38,5.088-0.721,6.469,1.472c0.023,0.039,0.049,0.079,0.072,0.119c2.729,4,8.58,2.319,8.58,2.319s1,2.681,1.539,4.61
		c0.121,0.49,0.25,1.109,0.359,1.79C893.751,430.166,893.761,432.189,893.39,434.16z"/>
	<circle fill="#575988" cx="879.75" cy="421.07" r="0.55"/>
	<circle fill="#575988" cx="875.089" cy="425.43" r="0.55"/>
	<circle fill="#575988" cx="870.349" cy="429.35" r="0.55"/>
	<circle fill="#575988" cx="872.8" cy="427.6" r="0.55"/>
	<circle fill="#575988" cx="877.519" cy="423.11" r="0.55"/>
	<path fill="#DCE6F2" d="M893.39,434.16c-0.6,1.78-5.061,1.78-5.061,1.78s-8,2.29-11.561,4.069c-3.559,1.78-6,0.84-6,0.84
		c-8.189,1.891-18.699-1.38-21.869-2c-3.17-0.619-4.42-4.76-0.5-5.55c0.504-0.102,0.996-0.252,1.471-0.45
		c3.461,1.18,7.074,1.854,10.729,2c8.08,0.341,14.48,0,14.48,0l8.18-2.63c1.549-0.942,3.27-1.567,5.061-1.84
		c1.803-0.365,3.506-1.107,5-2.18C893.724,430.164,893.75,432.188,893.39,434.16z"/>
	<path opacity="0.5" fill="#575988" enable-background="new    " d="M873.031,439.29c-0.457-0.001-0.914-0.048-1.361-0.14
		l0.121-0.58c1.664,0.259,3.367,0.021,4.9-0.681c0.729-0.29,1.459-0.63,2.17-1c0.709-0.37,1.699-0.8,2.58-1.13l0.809-0.279
		c0.451-0.15,0.9-0.301,1.33-0.49c0.25-0.101,0.49-0.221,0.73-0.33c0.582-0.307,1.201-0.542,1.84-0.7c0.33-0.062,0.664-0.106,1-0.13
		c0.303-0.021,0.602-0.058,0.9-0.11c0.596-0.145,1.174-0.359,1.719-0.64c0.588-0.299,1.209-0.527,1.852-0.68l0.439-0.08
		c0.467-0.011,0.918-0.176,1.279-0.471l0.43,0.41c-0.451,0.393-1.021,0.621-1.619,0.65l-0.41,0.07
		c-0.596,0.145-1.174,0.359-1.719,0.64c-0.588,0.299-1.209,0.527-1.852,0.68c-0.33,0.065-0.664,0.105-1,0.12
		c-0.311,0.023-0.621,0.063-0.93,0.12c-0.592,0.15-1.162,0.372-1.699,0.66l-0.75,0.34c-0.461,0.19-0.92,0.35-1.381,0.5l-0.789,0.28
		c-0.861,0.319-1.711,0.72-2.541,1.1s-1.449,0.69-2.199,1C875.664,438.949,874.357,439.244,873.031,439.29z"/>
	<path opacity="0.1" enable-background="new    " d="M874.939,340.74c0,0,4.121-6,11.16-5.9c7.041,0.1,10.061-0.79,10.061-0.79
		s-4.51,2.67-7.629,3C885.41,337.38,874.939,340.74,874.939,340.74z"/>
	<path opacity="0.1" enable-background="new    " d="M877.32,342.13c0,0,3.721-2.58,5.85-2.68c2.131-0.1,4-0.3,4-0.3
		c-0.996,0.703-2.102,1.24-3.27,1.59C882.08,341.24,877.32,342.13,877.32,342.13z"/>
	<path opacity="0.1" enable-background="new    " d="M878.111,343.91c0,0,5.609,0.45,5.658,1.94"/>
	<path opacity="0.1" enable-background="new    " d="M825.941,260.29c0.289,0.05,5.289-5.21,5.639-7.29
		c0.277-1.312,1.061-2.461,2.18-3.2c0,0,3.23,1.29,0.352,5.24C831.23,258.99,825.941,260.29,825.941,260.29z"/>
	<path opacity="0.1" enable-background="new    " d="M902.759,90.18c-1.139,2.7-2.148,2.9-1.93,5.52
		c-1.332,1.404-2.861,2.607-4.539,3.57c-3.551,2.11-7.41,6.23-11.83,6.23c-2.957,0.006-5.889-0.547-8.641-1.63
		c-0.699-5.6-2.811-8-2.811-8S907.939,77.95,902.759,90.18z"/>
	<path fill="#CC818C" d="M908.111,80.66c0,13.062-10.59,23.65-23.65,23.65c-13.062,0-23.65-10.588-23.65-23.65
		s10.588-23.65,23.65-23.65c13.055-0.005,23.645,10.574,23.65,23.63C908.111,80.646,908.111,80.653,908.111,80.66z"/>
	<path opacity="0.1" enable-background="new    " d="M909.599,115.51l-7.58,11.31c0,0-35.859,17.1-29-3
		c3-8.85,3.371-15.33,2.83-19.81h0.061c0.424,1.485,0.662,3.017,0.711,4.56c0.109,3.08,0.189,7,7.85,8.28
		c12.77,2.15,19.629-5.84,20.83-7.41C906.525,111.603,907.966,113.636,909.599,115.51z"/>
	<path opacity="0.1" enable-background="new    " d="M758.679,67.51l-4.738,9.21c-1.506-0.124-2.99-0.433-4.422-0.92l-0.408-0.49
		c1.939,0.74,8.479-11.61,8.479-11.61l0.211,0.17C758.339,66.02,758.679,67.51,758.679,67.51z"/>
	<path opacity="0.1" enable-background="new    " d="M902.169,240.34c-15.309,6.65-68.289,1-68.289,1
		c0.166-0.562,0.256-1.144,0.27-1.73c1.439-2.2,2.51-3.52,2.51-3.52l63.471-2.49C900.13,233.6,901.16,236.41,902.169,240.34z"/>
	<path fill="#67647E" d="M875.939,104.56l-7.059,3c-2.18-0.024-4.148-1.301-5.061-3.28c-1.631-3.42-7.43,0-7.43,0
		s-17.711-1.34-24.25,1.94c0,0-10.561-4.47-12-4.76s-3.721-1.49-4.76-1.19c-1.041,0.3-2.381-1.94-3.121-1.79s-1.049-1.49-3.43-2.08
		c-2.379-0.59-3.27,0.15-5.949-2.53c-2.68-2.68-24.391-13.24-24.391-13.24l-9.82-8l-10.41-8.33c0,0-6.549,12.34-8.479,11.6
		l19.779,23.8c0,0,14.279,12.5,24.1,16.51c9.82,4.01,9.07,5.21,9.07,5.21s29.76,15.17,34.369,14.88
		c4.611-0.29,3.721,31.09,1.781,36.15s-5.051,41.65-5.051,41.65s-3,7.73,0.141,13.09c0,0,0.75,11,0,12.94c0,0,53.311,5.7,68.43-1
		c0,0,2.23-24.69,0-27.82s2.09-10.11,2.09-10.11l9.449-21.32l23.182-23.37c0,0,3.568-19.49-12.34-32l-10.57-9.37
		c0,0-5.91-5.11-7.631-5.43c-1.721-0.32-1.09,0-1.09,0s-6.9,10-21,7.66c-7.66-1.29-7.74-5.19-7.85-8.28
		C876.593,107.557,876.357,106.036,875.939,104.56z"/>
	<path opacity="0.1" enable-background="new    " d="M904.99,184.64c0,0-32.73,1.34-39.27,11.61c0,0,8.48-4,16.061-2.83
		S904.99,184.64,904.99,184.64z"/>
	<path opacity="0.1" enable-background="new    " d="M868.839,220.51c0,0,15.471,1,18.75-2.229c3.281-3.23,3.281-5.2,3.281-5.2
		L868.839,220.51z"/>
	<path opacity="0.1" enable-background="new    " d="M908.111,153.11c0,0-13.092,15.47,2.828,22.16L908.111,153.11z"/>
	<path opacity="0.1" enable-background="new    " d="M830.611,123.21c0,0,4.76,9.71,7.139,10.36L830.611,123.21z"/>
	<path opacity="0.1" enable-background="new    " d="M814.55,119.04c0,0,11.9,10.71,14.129,11.75
		C828.679,130.79,816.33,119.04,814.55,119.04z"/>
	<path opacity="0.1" enable-background="new    " d="M862,108.78c0,0-11.459,17.1-4,27.52C857.939,136.3,853.82,123.95,862,108.78z"
		/>
	<path fill="#CC818C" d="M890.871,238.35l-3.5,3.29l-0.49,0.46l-4.051,3.83c-0.299,0.22-0.58,0.44-0.869,0.64
		c-16.5,11.83-19.811-6.14-19.811-6.14s-7.289,4.76-8.33,0.89c-1.039-3.87,17-9.37,19.631-9.07c0.238,0.025,0.48,0.025,0.719,0
		c1.301-0.218,2.553-0.661,3.701-1.31c0.27-0.14,0.539-0.28,0.799-0.43c0.92-0.512,1.811-1.073,2.67-1.68L890.871,238.35z"/>
	<path opacity="0.1" enable-background="new    " d="M908.71,80.66c0,8.341-4.393,16.066-11.561,20.33
		c-0.326-0.553-0.613-1.127-0.859-1.72c-0.85-2-1.371-4.09-2.221-6.07c-0.959-2.163-2.316-4.127-4-5.79
		c-0.268-0.323-0.611-0.573-1-0.73c-0.775-0.104-1.559,0.113-2.17,0.6c-1.002,0.683-2.119,1.174-3.301,1.45
		c-1.201,0.271-2.457-0.109-3.309-1c-0.92-1.1-0.791-2.72-0.521-4.13c0.57-3.08,1.541-6.1,1.541-9.23s-1.18-6.51-3.9-8.06
		c-2.4-1.36-5.379-1-8.049-1.75c-0.414-0.11-0.818-0.25-1.211-0.42c9.129-9.35,24.107-9.53,33.457-0.402
		c4.561,4.451,7.131,10.551,7.133,16.922H908.71z"/>
	<path fill="#585268" d="M866.519,60.38c-0.43,0.23-0.898,0.64-0.77,1.12c0.08,0.225,0.23,0.418,0.43,0.55
		c1.102,0.892,2.375,1.546,3.74,1.92c2.67,0.72,5.66,0.38,8.061,1.75c2.709,1.55,3.91,4.92,3.9,8.05s-1,6.16-1.551,9.23
		c-0.26,1.42-0.4,3,0.531,4.14c0.852,0.888,2.107,1.267,3.309,1c1.178-0.272,2.293-0.761,3.291-1.44
		c0.609-0.489,1.395-0.707,2.17-0.6c0.406,0.149,0.771,0.396,1.059,0.72c1.688,1.664,3.045,3.632,4,5.8
		c0.861,2,1.381,4.08,2.221,6.07c0.746,2.046,2.154,3.784,4,4.94c1.916,1.156,4.367,0.899,6-0.63c1.381-1.52,1.34-3.82,2-5.77
		c1.18-3.37,4.48-5.49,6.541-8.4c2.318-3.27,3-7.4,3.59-11.36c0.273-1.25,0.295-2.542,0.059-3.8c-0.271-0.832-0.623-1.635-1.049-2.4
		c-2.301-4.76-2.25-10.75-5.92-14.56c-2.76-2.85-6.941-3.72-10.881-4.2c-3.939-0.479-8.07-0.78-11.449-2.85
		c-0.947-0.717-1.99-1.296-3.1-1.72c-1.16-0.403-2.441,0.076-3.051,1.14c-0.07,0.305-0.211,0.589-0.41,0.83
		c-0.354,0.204-0.783,0.23-1.16,0.07l-5.24-1.41l0.602,2.64c-1.904,0.076-3.803-0.266-5.561-1c-0.1,1.49,1.58,2.46,2.1,3.85
		c0.387,1.302-0.002,2.709-1,3.63C871.041,59.58,868.66,59.21,866.519,60.38z"/>
	<path opacity="0.1" enable-background="new    " d="M845.291,415.81l-0.211,2.381l-0.09,0.05c-8.529,4.76-26.18-8.521-26.18-8.521
		l1.84-1.84c0.607,0.676,0.896,1.577,0.801,2.48l3.609,0.199l4.311,4.66c0,0,11.67,1.351,14.83,0.59H845.291z"/>
	<path fill="#FF748F" d="M843.8,428.76c-5.551,1.23-25,1.141-25,1.141l-10.859,1.729c0,0-18.691,1.79-20.771-4
		s1.631-5.45,1.631-5.45h0.141l7.779-0.63c0,0,9.869-3.819,13.49-6.45c2.857-2.222,5.559-4.642,8.08-7.239c0,0,3.25-0.63,3.189,3.13
		l3.609,0.2l4.311,4.649c0,0,11.67,1.36,14.83,0.601h1.09l-0.5,5.75l0.141,0.18C845.65,423.26,848.759,427.65,843.8,428.76z"/>
	<circle fill="#575988" cx="823.66" cy="414.31" r="0.55"/>
	<circle fill="#575988" cx="809.679" cy="420.38" r="0.55"/>
	<circle fill="#575988" cx="802.48" cy="422.57" r="0.55"/>
	<circle fill="#575988" cx="813.349" cy="419.22" r="0.55"/>
	<circle fill="#575988" cx="806.07" cy="421.48" r="0.55"/>
	<circle fill="#575988" cx="817.06" cy="417.5" r="0.55"/>
	<circle fill="#575988" cx="820.73" cy="415.91" r="0.55"/>
	<path fill="#DCE6F2" d="M843.8,428.76c-5.551,1.23-25,1.141-25,1.141l-10.859,1.729c0,0-18.691,1.79-20.771-4
		s1.631-5.45,1.631-5.45h0.141c1.189,1.54,3.578,3.301,8.279,3.38l13.439,0.551l13.93-1c0,0,13-0.4,15.17-0.841
		c1.787-0.482,3.527-1.121,5.201-1.909C845.65,423.26,848.759,427.65,843.8,428.76z"/>
	<path opacity="0.5" fill="#575988" enable-background="new    " d="M808.941,430.32c-0.742,0.003-1.482-0.088-2.201-0.271
		l0.201-0.54c1.836,0.401,3.746,0.314,5.539-0.25c0.66-0.17,1.311-0.359,2-0.56c3.1-1.056,6.393-1.428,9.65-1.09h0.43
		c5.961,0.317,11.939,0.049,17.85-0.801c1.404-0.092,2.74-0.628,3.82-1.529l0.43,0.42c-1.168,0.991-2.621,1.587-4.15,1.7
		c-5.959,0.851-11.988,1.118-18,0.8h-0.42c-1.971-0.144-3.951-0.087-5.91,0.17c-1.199,0.226-2.385,0.523-3.549,0.89
		c-0.66,0.2-1.32,0.4-2,0.57C811.425,430.147,810.185,430.312,808.941,430.32z"/>
	<path opacity="0.1" enable-background="new    " d="M890.871,238.35l-3.5,3.29l-8.701-11.13c0.92-0.512,1.811-1.073,2.67-1.68
		L890.871,238.35z"/>
	<path fill="#67647E" d="M930.281,147.01l6.84,9.521v10c0,0,3.129,10.57,0,21.13l0.35,9.22c0,0-3.32,8.48-2.131,10.56
		c0,0-0.6,6.25-8.629,10.57c-8.031,4.32-17.111,14.5-17.111,14.5s-3.42,6.55-12.639,5.06l-8.781,3.72l-10.109-12.94l13.68-7.44
		c0,0,4.76-6.4,7.59-6.1l11.6-13.51c0,0,0.301-4.31,3.271-4.31c0,0-5.5-4.46-3.57-7.14s0.299-14.58,0.299-14.58L930.281,147.01z"/>
	<path opacity="0.1" enable-background="new    " d="M917.49,190.44c0,0,15.621-0.29,17.551,3.72
		C936.97,198.17,922.25,188.21,917.49,190.44z"/>
	<path opacity="0.1" enable-background="new    " d="M886.939,241.32c0.006,0.261-0.014,0.523-0.059,0.78
		c-0.371,2.469-2.428,4.336-4.92,4.47h-0.281c-2.898,0-5.25-2.35-5.25-5.25c0.004-0.582,0.102-1.159,0.291-1.71
		c-2.48-2-2.609-5.58-2.551-7.37c1.301-0.218,2.553-0.661,3.701-1.31c0.648,1.86,1.518,3.637,2.59,5.29
		c0.398-0.1,0.809-0.15,1.219-0.15c2.9-0.006,5.256,2.34,5.26,5.24C886.939,241.313,886.939,241.316,886.939,241.32z"/>
	<path fill="#575988" d="M878.339,229.77c0,0-3.52,0.79-3.52,1.43c0,0.64-0.789,6.45,3.07,8.83c3.859,2.38,3.48-3.32,3.48-3.32
		S878.041,231.6,878.339,229.77z"/>
	<circle fill="#E4AAB4" cx="882.281" cy="241.32" r="5.26"/>
	<circle fill="#DCE6F2" cx="882.281" cy="241.32" r="4.51"/>
	<path opacity="0.1" enable-background="new    " d="M861.8,243.35c0,0,11.109,9.22,25.389,3.38v4.46c0,0-9.52,6.54-18.148,2.58
		C860.41,249.81,861.8,243.35,861.8,243.35z"/>
	<path opacity="0.1" enable-background="new    " d="M861.8,242.16c0,0,11.139,9.22,25.389,3.35v4.46c0,0-9.52,6.54-18.148,2.58
		C860.41,248.59,861.8,242.16,861.8,242.16z"/>
	<path fill="#444053" d="M861.8,242.16c0,0,11.139,9.22,25.389,3.35v4.46c0,0-9.52,6.54-18.148,2.58
		C860.41,248.59,861.8,242.16,861.8,242.16z"/>
	<path opacity="0.05" enable-background="new    " d="M862.099,242.16c0,0,11.111,9.22,25.391,3.38V250c0,0-9.551,6.51-18.15,2.58
		C860.74,248.65,862.099,242.16,862.099,242.16z"/>
	<path opacity="0.1" enable-background="new    " d="M826.941,407.83c0,0,14.879,2.729,17.059,3.32c2.18,0.59-0.6,1.64-0.6,1.64
		S829.769,410.36,826.941,407.83z"/>
	<path opacity="0.1" enable-background="new    " d="M826.55,399.95c0.24,0,10.109-2.78,12.24-7.54"/>
	<path opacity="0.1" enable-background="new    " d="M840.939,343.02c0,0,4,5.26,6.58,5.11
		C850.099,347.98,843.291,342.82,840.939,343.02z"/>
	<path opacity="0.1" enable-background="new    " d="M843.16,351.75c0,0,1.68,3.72,4.16,2.53"/>
	<path opacity="0.05" enable-background="new    " d="M852.531,270.08l10.549,27.82c0,0,1.49-17.9-1.66-23.26
		C859.595,271.521,856.128,269.741,852.531,270.08z"/>
	<g opacity="0.1">
		<path d="M878.5,49.64l-0.09-0.4l-1.699-0.45l0.189,0.83C877.433,49.662,877.966,49.668,878.5,49.64z"/>
		<path d="M873.839,56.33l0.18-0.16c0.998-0.917,1.385-2.321,1-3.62c-0.203-0.492-0.488-0.948-0.84-1.35
			c-0.838-0.159-1.658-0.4-2.449-0.72c-0.1,1.49,1.58,2.45,2.1,3.85C874.062,54.976,874.066,55.682,873.839,56.33z"/>
		<path d="M901.939,102.06c-1.842-1.158-3.25-2.896-4-4.94c-0.85-2-1.359-4.1-2.219-6.07c-0.953-2.166-2.312-4.131-4-5.79
			c-0.281-0.329-0.643-0.58-1.051-0.729c-0.775-0.108-1.561,0.109-2.17,0.6c-1.002,0.679-2.121,1.171-3.299,1.45
			c-1.203,0.259-2.453-0.119-3.311-1c-0.92-1.1-0.791-2.72-0.52-4.13c0.58-3.08,1.539-6.11,1.549-9.24s-1.189-6.5-3.91-8
			c-2.398-1.37-5.379-1-8-1.75c-1.365-0.372-2.641-1.026-3.74-1.92l-0.209-0.19c-0.223,0.091-0.439,0.194-0.65,0.31
			c-0.43,0.23-0.891,0.64-0.77,1.11c0.086,0.227,0.24,0.422,0.439,0.56c1.104,0.887,2.375,1.537,3.74,1.91
			c2.67,0.73,5.65,0.39,8.051,1.76c2.719,1.54,3.91,4.92,3.91,8s-1,6.16-1.551,9.23c-0.27,1.41-0.4,3,0.52,4.13
			c0.854,0.89,2.107,1.269,3.311,1c1.178-0.276,2.297-0.764,3.301-1.44c0.609-0.488,1.393-0.708,2.17-0.61
			c0.387,0.16,0.729,0.411,1,0.73c1.684,1.662,3.041,3.626,4,5.79c0.859,2,1.369,4.09,2.219,6.07c0.736,2.067,2.145,3.828,4,5
			c1.891,1,4.51,1,6-0.63c0.387-0.438,0.688-0.943,0.891-1.49C905.974,103.027,903.718,103.138,901.939,102.06z"/>
		<path d="M910.48,94.51c1.49-1.88,3.439-3.479,4.84-5.46c0.277-0.393,0.535-0.8,0.77-1.22C914.291,90.12,911.82,91.97,910.48,94.51
			z"/>
	</g>
	<g opacity="0.1">
		<path d="M822.23,66.41h-236.6c-6.822,0.017-12.348,5.539-12.371,12.36v149.49c0.023,6.821,5.549,12.344,12.371,12.36h185.6
			c0,0,4.811,25.53-11,28.27c0,0,35.381,2.54,29.199-28.27h32.791c6.818-0.017,12.344-5.541,12.359-12.36V78.77
			C834.564,71.955,829.046,66.432,822.23,66.41z"/>
		<g opacity="0.2">
			<path d="M613.759,106.09h180.32c3.133,0,5.67,2.539,5.67,5.67v0.34c0,3.131-2.537,5.67-5.67,5.67h-180.32
				c-3.131,0-5.67-2.539-5.67-5.67v-0.34C608.089,108.628,610.628,106.09,613.759,106.09z"/>
			<path d="M613.759,158.29H760.57c3.131,0,5.67,2.539,5.67,5.67v0.34c0,3.132-2.539,5.67-5.67,5.67H613.759
				c-3.131,0-5.67-2.538-5.67-5.67v-0.34C608.089,160.829,610.628,158.29,613.759,158.29z"/>
			<path d="M613.759,132.19h102.51c3.133,0,5.672,2.539,5.672,5.67v0.34c0,3.131-2.539,5.67-5.672,5.67h-102.51
				c-3.131,0-5.67-2.539-5.67-5.67v-0.34C608.089,134.729,610.628,132.19,613.759,132.19z"/>
		</g>
	</g>
	<path fill="#FFFFFF" d="M825.32,64.34h-236.6c-6.822,0.022-12.348,5.547-12.371,12.37V226.2c0.023,6.821,5.551,12.343,12.371,12.36
		h185.6c0,0,4.811,25.53-11,28.27c0,0,35.381,2.54,29.199-28.27h32.791c6.818-0.017,12.344-5.541,12.359-12.36V76.71
		C837.654,69.893,832.136,64.368,825.32,64.34z"/>
	<g opacity="0.2">
		<path fill="#510FA8" d="M616.849,104.02h180.32c3.133,0,5.67,2.539,5.67,5.67v0.34c0,3.131-2.537,5.67-5.67,5.67h-180.32
			c-3.131,0-5.67-2.539-5.67-5.67v-0.34C611.179,106.559,613.718,104.02,616.849,104.02z"/>
		<path fill="#510FA8" d="M616.849,156.23H763.66c3.131,0,5.67,2.539,5.67,5.67v0.34c0,3.131-2.539,5.67-5.67,5.67H616.849
			c-3.131,0-5.67-2.539-5.67-5.67v-0.34C611.179,158.769,613.718,156.23,616.849,156.23z"/>
		<path fill="#510FA8" d="M616.849,130.13h102.512c3.131,0,5.67,2.539,5.67,5.67v0.34c0,3.131-2.539,5.67-5.67,5.67H616.849
			c-3.131,0-5.67-2.539-5.67-5.67v-0.34C611.179,132.668,613.718,130.13,616.849,130.13z"/>
	</g>
	<path fill="#510FA8" d="M81.13,552.99c0,0,3.56,4.66-1.65,11.7s-9.51,13-7.77,17.369c0,0,7.86-13.069,14.26-13.25
		C92.37,568.63,88.17,560.85,81.13,552.99z"/>
	<path opacity="0.1" enable-background="new    " d="M81.13,552.99c0.307,0.451,0.549,0.942,0.72,1.46
		c6.25,7.34,9.57,14.18,3.57,14.359c-5.59,0.16-12.29,10.15-13.9,12.681c0,0.189,0.12,0.38,0.19,0.569c0,0,7.86-13.069,14.26-13.25
		C92.37,568.63,88.17,560.85,81.13,552.99z"/>
	<path fill="#FFD037" d="M87.75,558.93c0,1.641-0.18,3-0.41,3s-0.41-1.33-0.41-3s0.23-0.87,0.46-0.87S87.75,557.29,87.75,558.93z"/>
	<path fill="#FFD037" d="M90.03,560.89c-1.44,0.79-2.7,1.261-2.81,1.061c-0.11-0.2,1-1,2.41-1.78c1.41-0.78,0.88-0.21,1,0
		S91.47,560.11,90.03,560.89z"/>
	<path fill="#510FA8" d="M62.29,552.99c0,0-3.56,4.66,1.65,11.7s9.51,13,7.77,17.369c0,0-7.86-13.069-14.26-13.25
		C51.05,568.63,55.25,560.85,62.29,552.99z"/>
	<path opacity="0.1" enable-background="new    " d="M62.29,552.99c-0.307,0.451-0.549,0.942-0.72,1.46
		C55.32,561.79,52,568.63,58,568.81c5.59,0.16,12.29,10.15,13.9,12.681c-0.05,0.189-0.12,0.38-0.19,0.569
		c0,0-7.86-13.069-14.26-13.25C51.05,568.63,55.25,560.85,62.29,552.99z"/>
	<path fill="#FFD037" d="M55.67,558.93c0,1.641,0.18,3,0.41,3s0.41-1.33,0.41-3s-0.23-0.87-0.46-0.87S55.67,557.29,55.67,558.93z"/>
	<path fill="#FFD037" d="M53.39,560.89c1.44,0.79,2.7,1.261,2.81,1.061c0.11-0.2-1-1-2.41-1.78s-0.88-0.21-1,0
		S51.94,560.11,53.39,560.89z"/>
	<ellipse opacity="0.1" fill="#510FA8" enable-background="new    " cx="71.71" cy="612.01" rx="37.28" ry="5.72"/>
	<path fill="#65617D" d="M90.94,575.78l-0.18,1.45l-0.25,2.06l-0.11,0.86l-0.25,2.05l-0.1,0.859l-0.25,2.061l-2.86,23.39
		c-0.25,2.09-3.66,3.721-7.78,3.721H64.3c-4.12,0-7.52-1.631-7.78-3.721l-2.86-23.38l-0.25-2.06l-0.1-0.86l-0.25-2.05l-0.11-0.86
		l-0.25-2.06l-0.18-1.45c-0.14-1.18,1.71-2.18,4-2.18h30.31C89.19,573.6,91.04,574.6,90.94,575.78z"/>
	<polygon fill="#9D9CB5" points="90.71,577.23 90.46,579.29 52.95,579.29 52.7,577.23 	"/>
	<polygon fill="#9D9CB5" points="90.36,580.15 90.11,582.2 53.31,582.2 53.05,580.15 	"/>
	<polygon fill="#9D9CB5" points="90,583.06 89.75,585.12 53.66,585.12 53.41,583.06 	"/>
	<ellipse opacity="0.1" fill="#510FA8" enable-background="new    " cx="645.791" cy="789.35" rx="84.039" ry="13.79"/>
	<g opacity="0.1">
		<path d="M743.13,365.87H486.74c-7.392,0.022-13.378,6.008-13.4,13.4v162c0.022,7.392,6.009,13.379,13.4,13.4h201.13
			c0,0,5.209,27.66-11.91,30.63c0,0,38.33,2.75,31.629-30.63h35.541c7.391-0.021,13.377-6.009,13.4-13.4v-162
			C756.507,371.878,750.521,365.892,743.13,365.87z"/>
		<g opacity="0.2">
			<path d="M516.75,465.45h196.361c3.131,0,5.67,2.538,5.67,5.67v1.32c0,3.131-2.539,5.67-5.67,5.67H516.75
				c-3.132,0-5.67-2.539-5.67-5.67v-1.32C511.08,467.988,513.618,465.45,516.75,465.45z"/>
			<path d="M516.75,437.16h78.72c3.131,0,5.67,2.538,5.67,5.67v1.32c0,3.131-2.539,5.67-5.67,5.67h-78.72
				c-3.132,0-5.67-2.539-5.67-5.67v-1.32C511.08,439.698,513.618,437.16,516.75,437.16z"/>
		</g>
	</g>
	<path fill="#FFFFFF" d="M740.941,363.64H484.5c-7.392,0.022-13.378,6.008-13.4,13.4v162c0.022,7.392,6.009,13.378,13.4,13.4h201.13
		c0,0,5.209,27.659-11.91,30.64c0,0,38.34,2.75,31.641-30.64h35.58c7.391-0.022,13.377-6.009,13.398-13.4v-162
		C754.318,369.648,748.332,363.662,740.941,363.64z"/>
	<g opacity="0.2">
		<path fill="#510FA8" d="M514.52,463.22H710.88c3.131,0,5.67,2.539,5.67,5.67v1.32c0,3.132-2.539,5.67-5.67,5.67H514.52
			c-3.131,0-5.67-2.538-5.67-5.67v-1.32C508.85,465.759,511.389,463.22,514.52,463.22z"/>
		<path fill="#510FA8" d="M514.52,434.93h78.72c3.131,0,5.67,2.539,5.67,5.67v1.32c0,3.132-2.539,5.67-5.67,5.67h-78.72
			c-3.131,0-5.67-2.538-5.67-5.67v-1.32C508.85,437.469,511.389,434.93,514.52,434.93z"/>
	</g>
	
		<linearGradient id="SVGID_2_" gradientUnits="userSpaceOnUse" x1="455.1523" y1="85.0938" x2="455.1523" y2="535.9155" gradientTransform="matrix(1 0 0 -1 132.9399 874.5293)">
		<stop  offset="0" style="stop-color:#808080;stop-opacity:0.25"/>
		<stop  offset="0.54" style="stop-color:#808080;stop-opacity:0.12"/>
		<stop  offset="1" style="stop-color:#808080;stop-opacity:0.1"/>
	</linearGradient>
	<path fill="url(#SVGID_2_)" d="M694.15,779.97c-1.209-5.13-2-9.64-2-9.64s0.279-5.59-2.23-9.79v-1.4l0,0v-10.33
		c0.713-1.875,1.586-3.686,2.611-5.409c1.859-3.25,0-15.15,0-15.15s-6.9-16.78-5.221-27.42s-14.17-47.271-14.17-47.271
		c0.098-3.531,0.598-7.041,1.49-10.46c0.166-0.717,0.232-1.454,0.199-2.189c0.006-0.09,0.006-0.181,0-0.271c0,0,0,0.061,0,0.091
		c-0.24-7-5.789-20.181-5.789-20.181l0.75-25.069c0,0,3.539-14.79-2.24-34.641c-2-6.92-3.311-12.47-4.131-16.74
		c-0.09-0.489-0.18-1-0.26-1.399c11.9-1.811,21-3.32,21-3.32s-6.879-28.87-11.539-33.87s-8.381-21-8.381-21s-2.43-20.39,1.49-26.34
		s4.471-16.229,4.471-16.229s9-6.5,10.068-9.381c1.07-2.88,3-9.38,3-12.81s-1.119-6.5-0.75-8.3c0.371-1.8-2.609-8.66-1.119-11.91
		c0.391-0.998,0.594-2.059,0.6-3.13c0,0,0-0.061,0-0.09l0,0c0.01-2.839-0.256-5.672-0.789-8.46c-2.584-2.183-5.6-3.794-8.85-4.73
		l-0.201-0.78l-0.5-2c-0.299-0.2-0.59-0.37-0.879-0.53v-0.74l-0.092-2.93l1.41-6.58c2.75-11.46-12.539-13.17-12.539-13.17
		c-0.924-1.756-2.467-3.107-4.33-3.79c-3.08-1.08-0.51,17.23,0.93,18.4c1.08,0.88,4.42,6.62,6,9.44l0,0l0.26,0.47
		c-0.254,0.222-0.488,0.466-0.699,0.73l0.58,4l0.09,0.61c-1.012,1.261-1.832,2.663-2.439,4.16c0,0,2.799,3.07,2.238,6.5
		c-0.559,3.43,0.852,7.7,0.922,7.93c-0.16-0.189-2.131-2.319-4.092-1.8c-1.959,0.521-7.459,2.17-7.459,2.17s-4.1,0.721-3.721,1.62
		c0.381,0.9-2.799,4.87-2.799,4.87l-11-10.44c-0.102-0.31-0.221-0.619-0.32-0.949c-0.469-1.491-0.805-3.021-1-4.57
		c1.197-0.29,2.375-0.664,3.52-1.12c1.141-0.402,2.17-1.071,3-1.95c1.109-1.32,1.32-3.11,1.77-4.75c0.881-3.21,2.75-6.07,4.09-9.12
		c2.273-5.137,3.035-10.815,2.201-16.37c-0.176-1.708-0.754-3.35-1.689-4.79c-1.801-2.48-5.061-3.48-7.441-5.46
		c-2.379-1.98-3.9-5-6.66-6.47c-2.5-1.34-5.549-1.18-8.369-0.72c-5.51,0.91-10.803,2.836-15.609,5.68
		c-1.611,0.95-3.371,2.05-5.221,1.72c-1.58-0.29-2.74-1.56-3.77-2.77c0-0.05,0-0.1,0.049-0.15l-0.119-0.14
		c-1.129,2.573-1.686,5.361-1.631,8.17c0,0.44,0,0.88,0.051,1.32v0.46c0,0.13,0,0.26,0,0.38l0,0c0.002,0.2-0.023,0.398-0.08,0.59
		c-0.225,0.562-0.566,1.069-1,1.49c-0.338,0.376-0.641,0.785-0.9,1.22c0.041-0.152,0.092-0.303,0.15-0.45
		c-0.703,1.028-1.1,2.235-1.141,3.48c-0.062,0.902,0.232,1.793,0.82,2.48c0.553,0.54,1.154,1.026,1.801,1.45
		c-1.57,8.656,2.42,17.373,10,21.84c0.129,0.31,0.26,0.63,0.379,0.95c1.41,3.709,2.471,8,2,12c0,0.3-0.08,0.59-0.139,0.88
		c-0.061,0.29-0.271,0.301-0.391,0.46l0,0c0,0-18.189,0.181-22.48-3.699c-4.289-3.88-10.811,9.47-10.811,9.47s-6.52,1.26-7.818,0
		c-1.301-1.26-8.951-0.18-8.951-0.18c-3.113-2.763-7.158-4.242-11.32-4.141c-2.545-1.935-5.354-3.497-8.339-4.64l0,0l-0.2-0.07l0,0
		c-1.311-0.476-2.712-0.653-4.1-0.52c0,0-8.95-7.4-11.561-11.36c-2.609-3.96-15-18.69-15.09-18.76v-0.71l-0.14-2.15
		c-0.367,0.062-0.738,0.096-1.11,0.1c-0.069-0.21-0.149-0.46-0.25-0.74c-0.717-2.09-1.6-4.12-2.64-6.07c0,0,0-2.7,0.79-3.38
		c0.79-0.68-0.33-10.6-0.33-10.6s-8.061-18.85-15.28-4.78c0,0-13.65,9.11-2.189,19.71c0,0,4.569,2.21,5.21,4
		c0.43,1.14,2,4.32,3,6.43l0.47,0.95l-0.13,0.11l0.17,1.77l0.069,0.68c-2.159,1.23-3.619,2.44-3.27,3.36
		c0.637,1.563,1.077,3.199,1.31,4.87c0,0,15.78,19.8,17.831,28.3c0,0,42.49,25.25,56.47,27.05l-2.42,12.631
		c-0.361,3.414-0.549,6.846-0.561,10.279c0.18,2.71-1.68,15-1.68,15s-2.42,18-4.471,20.561c-2.049,2.56-1.629,13.33-1.629,13.33
		c-0.494,5.181-1.432,10.309-2.801,15.33c-2,6.859-0.561,15.34-0.561,15.34s-7.08,16.229,9.881,5.229c0,0,8.33-0.52,17.92-0.85
		c0,0.32,0,0.63,0,1c0,1.229,0,2.57-0.061,4c-0.129,9.3-0.18,22.109,0.24,31.81c0.75,17.13,6,51.05,6,51.05v17
		c-0.334,1.603-0.498,3.234-0.49,4.87c-0.115,6.007,1.477,11.923,4.59,17.061l1.311,11.359c0,0,3.061,7.49,3.119,12
		c-0.014,0.366-0.057,0.731-0.129,1.091c-0.115,0.572-0.166,1.156-0.15,1.739c-0.17,5.16,2.939,17.5,2.939,17.5s0.18,12.45,2,13.17
		c1.59,0.62-2.129,7.181-3.24,9.061c0-0.12,0-0.24-0.068-0.36l-0.23,0.38c-0.385,1.003-0.582,2.067-0.58,3.141
		c-0.215,1.737,0.592,3.442,2.07,4.38c3.539,2.16,5.439,4,2.43,4.689c-1.105,0.174-2.199,0.404-3.281,0.69l-0.158-0.42
		c-0.867,0.353-1.373,1.258-1.221,2.18c0.021,1.477,0.402,2.925,1.109,4.22c3,6.681,5,9.2,5,9.2l1.439-0.159
		c-0.217,0.543-0.494,1.06-0.828,1.539c-0.545,0.784-1.268,1.426-2.111,1.87c-0.777,0.469-1.646,0.766-2.549,0.87
		c-2.045,0.068-3.965,1.003-5.281,2.57c-1.859,2.41-3,5.68,0.65,8.56l13.33,4.601c0,0,22.92,3,21.711-2.17
		c-1.211-5.17-2-9.65-2-9.65c0.094-3.143-0.543-6.265-1.861-9.12c-0.24-0.464-0.512-0.911-0.809-1.34l0.809-0.09
		c0,0,1.68-11.37,3.91-13.53c0.52-0.5,0.641-0.88,0.51-1.18c0.23-0.62-0.35-1-1.1-1.19l-0.16,0.45c-0.732-0.16-1.48-0.243-2.23-0.25
		c0,0-0.738-5.95,1.682-8.11c0.395-0.499,0.564-1.14,0.469-1.77c0.018-0.817-0.066-1.634-0.25-2.431l-0.09,0.141
		c-1.221-5.4-5.35-14-5.35-14s-0.189-5.41,1.311-7.58s-0.191-29.4-0.191-29.4s0.561-13.17-1.119-19.3s2.051-13.35,2.051-13.35
		s0-0.15,0-0.4l0.049-0.09c0,0-0.09-0.81-0.221-2.07c0,0,0,0.08,0,0.12c-0.379-3.479-1.09-9.8-1.609-12.72
		c-0.75-4.15,0.18-24,0.18-24l3.361-8.48l6,14.62l6.34,19.48c0,0,3.139,4.109,3.209,8.279c0.016,0.203,0.016,0.407,0,0.61
		c-0.047,0.436-0.07,0.872-0.07,1.311c-0.111,2.456,0.566,4.884,1.932,6.93c0,0,1.68,9.2,4.289,11.55s2.609,6.85,2.609,6.85
		s3.16,13.351,4.66,15.7c1.25,2,1.32,7.41,1.311,9.07l0,0c0,0.31,0,0.49,0,0.49s0.439,4.77,0.42,8.779c0,0.49,0,1,0,1.431
		c-0.004-0.037-0.004-0.074,0-0.11c-0.008,1.095-0.139,2.185-0.391,3.25c0,0,0,0.12-0.059,0.19l0.059-0.681
		c-0.67,2.723-1.006,5.517-1,8.32c-0.09,4.8,0.641,10.48,3.551,13.81c5,5.78,8.199,5.061,8.199,5.061s-2.42,7.21-5.41,8.65
		c-0.109,0.058-0.215,0.128-0.309,0.21c0-0.141-0.061-0.28-0.08-0.42c-0.656,0.734-0.971,1.71-0.871,2.689
		c-0.219,3.17,1.781,8.32,3.691,10.69c0.701,0.695,1.568,1.201,2.52,1.47l-0.471,0.29c-0.324,0.182-0.658,0.345-1,0.49
		c-0.482,0.212-0.994,0.344-1.52,0.39c-2.047,0.06-3.971,0.996-5.279,2.57c-1.861,2.399-3,5.67,0.648,8.55l13.33,4.6
		C672.589,782.18,695.361,785.12,694.15,779.97z"/>
	<path fill="#2D293D" d="M606.589,788.51l-12.898-4.6c-3.561-2.88-2.422-6.15-0.631-8.561c1.252-1.555,3.115-2.492,5.109-2.569
		c0.877-0.104,1.721-0.402,2.471-0.87c0.807-0.455,1.492-1.096,2-1.87c0.949-1.495,1.459-3.229,1.471-5c0,0,14.17-4.15,18,0
		c0.689,0.75,1.27,1.596,1.719,2.51c1.273,2.867,1.889,5.984,1.801,9.12c0,0,0.729,4.51,1.889,9.65
		C628.679,791.46,606.589,788.51,606.589,788.51z"/>
	<path fill="#2D293D" d="M669.73,782.14l-12.9-4.6c-3.561-2.88-2.43-6.15-0.629-8.55c1.244-1.563,3.111-2.502,5.109-2.57
		c0.508-0.046,1.006-0.178,1.471-0.39c0.344-0.139,0.678-0.303,1-0.49c3.6-2,3.51-6.85,3.51-6.85s14.16-4.15,18,0
		c0.52,0.558,0.973,1.175,1.35,1.84c2.439,4.2,2.17,9.8,2.17,9.8s0.721,4.51,1.891,9.65C691.871,785.12,669.73,782.14,669.73,782.14
		z"/>
	<path opacity="0.1" enable-background="new    " d="M622.191,765.05c0.689,0.75,1.27,1.596,1.719,2.51l0,0l-21.23,2.46
		c0.951-1.495,1.461-3.228,1.471-5C604.15,765.02,618.32,760.9,622.191,765.05z"/>
	<path opacity="0.1" enable-background="new    " d="M686.679,760.51v4c-3.289,5.44-19.26,4.25-23.898,1.521
		c0.344-0.139,0.678-0.303,1-0.49c3.6-2,3.51-6.85,3.51-6.85s14.16-4.15,18,0C685.824,759.239,686.291,759.851,686.679,760.51z"/>
	<path fill="#575988" d="M689.21,743.4c-0.988,1.731-1.836,3.541-2.531,5.409v14.25c-3.6,6-22.359,4-24.889,0.721
		c-2.531-3.28-5.23-11.721-2.34-13.16c2.889-1.44,5.229-8.66,5.229-8.66s-3.068,0.72-7.939-5.05c-4.869-5.771-3.43-18.58-2.52-21.65
		c0.91-3.069,0-13.35,0-13.35s0.18-7.21-1.27-9.561c-1.451-2.35-4.512-15.689-4.512-15.689s0-4.51-2.52-6.86
		c-2.52-2.35-4.15-11.54-4.15-11.54c-1.484-2.295-2.131-5.032-1.828-7.75c0.549-4.51-3.061-9.38-3.061-9.38l-6.131-19.479
		l-5.779-14.61l-3.221,8.47c0,0-0.91,19.84-0.18,24s1.801,15.15,1.801,15.15s-3.611,7.22-2,13.35c1.609,6.13,1.08,19.3,1.08,19.3
		s1.619,27.24,0.18,29.4s-1.26,7.58-1.26,7.58s7.389,15.87,5,18c-2.391,2.13-1.631,8.12-1.631,8.12s5,0,2.891,2.16
		c-2.111,2.16-3.689,13.56-3.689,13.56l-21.811,2.521c0,0-2-2.521-4.891-9.2c-2.891-6.681,0.541-6,3.451-6.67
		c2.908-0.67,1.059-2.53-2.361-4.69s-1.449-7-1.449-7s5.23-8.84,3.43-9.57c-1.801-0.729-2-13.159-2-13.159s-3.609-14.8-2.711-18.761
		c0.9-3.96-2.889-13.529-2.889-13.529l-1.26-11.37c-3.869-6.44-5.289-14.059-4-21.46v-17.53c0,0-5-33.91-5.771-51.05
		c-0.459-11-0.33-25.95-0.18-35.3c0.09-5.24,0.18-8.71,0.18-8.71l77.951-8.141c0.119,3.892,0.59,7.764,1.41,11.57
		c0.789,4.28,2,9.82,4,16.75c5.59,19.84,2.16,34.63,2.16,34.63l-0.721,25.08c0,0,6.859,16.771,5.41,22.55
		c-0.863,3.423-1.346,6.932-1.439,10.46c0,0,15.33,36.62,13.709,47.261c-1.619,10.64,5,27.42,5,27.42S691.009,740.15,689.21,743.4z"
		/>
	<path opacity="0.05" enable-background="new    " d="M644.65,649.42l23.73-3.16C668.38,646.26,654.941,659.97,644.65,649.42z"/>
	<path opacity="0.1" enable-background="new    " d="M664.941,623.08c0,0,0.809,8.39-4.33,11.55
		C660.621,634.63,669.82,633.18,664.941,623.08z"/>
	<path opacity="0.1" enable-background="new    " d="M663.49,596.39c0,0-19.83,16.32-27,15
		C629.32,610.07,663.49,596.39,663.49,596.39z"/>
	<path opacity="0.1" enable-background="new    " d="M615.25,657.09c0,0-15.059,3.42-15.51,9.47
		C599.291,672.61,615.25,657.09,615.25,657.09z"/>
	<path opacity="0.05" enable-background="new    " d="M618.56,732.31c0,0-21.279,4-15.24,6.671c6.041,2.67,16,4.869,16,4.869
		S626.14,744.21,618.56,732.31z"/>
	<g opacity="0.05">
		<path d="M599.019,743.28c-1.078-0.686-1.791-1.82-1.939-3.09l-0.219,0.38c0,0-2,4.87,1.439,7c0.4,0.25,0.77,0.5,1.109,0.739
			c0.641-0.119,1.32-0.21,2-0.369C604.291,747.24,602.451,745.44,599.019,743.28z"/>
		<path d="M626.441,741.83c0.59-0.54,0.568-1.93,0.209-3.71c-0.869,1.602-1.287,3.409-1.209,5.229
			C625.664,742.779,626.003,742.261,626.441,741.83z"/>
		<path d="M623.169,652.09c-0.787,2.132-1.271,4.363-1.439,6.63c0.408-1.567,0.959-3.094,1.65-4.56
			C623.38,654.16,623.3,653.35,623.169,652.09z"/>
		<path d="M671.941,642.62c0.146-0.656,0.213-1.328,0.199-2c-0.27,1.34-0.461,2.59-0.59,3.689
			C671.621,643.78,671.75,643.21,671.941,642.62z"/>
		<path d="M622.65,716.22c0.414-1.291,0.598-2.645,0.541-4c-0.654,1.607-0.994,3.325-1,5.061
			C622.3,716.91,622.455,716.554,622.65,716.22z"/>
		<path d="M627.121,750.23c-1.121,3.621-1.951,7.326-2.48,11.079l-21.811,2.53c0,0-2-2.53-4.889-9.2
			c-0.25-0.59-0.451-1.109-0.611-1.59c-1.311,0.601-1.82,2-0.109,5.92c2.891,6.67,4.879,9.2,4.879,9.2l21.842-2.53
			c0,0,1.619-11.359,3.779-13.529C628.769,751.05,628.089,750.51,627.121,750.23z"/>
		<path d="M598.3,717.84c0,0,0.18,12.45,2,13.17l0,0c0.91-2.06,1.52-4,0.709-4.34c-1.809-0.72-2-13.17-2-13.17
			s-3.6-14.79-2.699-18.76c0.9-3.971-2.891-13.53-2.891-13.53l-1.26-11.36c-3.873-6.441-5.293-14.064-4-21.47v-17.5
			c0,0-5-33.91-5.77-51c-0.461-11-0.33-26-0.18-35.3c0-1.69,0.049-3.19,0.08-4.45l-0.621,0.061c0,0-0.1,3.47-0.18,8.72
			c-0.16,9.34-0.289,24.32,0.18,35.29c0.721,17.14,5.771,51.05,5.771,51.05v17.5c-1.295,7.404,0.125,15.028,4,21.47l1.27,11.29
			c0,0,3.789,9.561,2.889,13.53C594.701,703.01,598.3,717.84,598.3,717.84z"/>
		<path d="M662.519,758.97c-1.771-2.564-2.949-5.492-3.449-8.569c-2.23,2,0.33,9.81,2.73,12.899c2.52,3.24,21.279,5.23,24.891-0.72
			v-3.44C681.81,763.98,664.941,762.04,662.519,758.97z"/>
		<path d="M689.941,738.59c-0.996,1.729-1.844,3.538-2.531,5.41v2.51c0.41-0.93,1-2.16,1.811-3.62
			c0.576-1.414,0.846-2.934,0.789-4.46C689.98,738.479,689.955,738.533,689.941,738.59z"/>
		<path d="M663.63,741.43c0.688-1.389,1.283-2.821,1.779-4.29c0,0-3.07,0.721-7.939-5c-3.551-4.199-3.75-12.13-3.24-17.31
			c-0.91,3.06-2.35,15.87,2.52,21.64C659.941,740.2,662.339,741.19,663.63,741.43z"/>
		<path d="M654.22,701.43c0.318,3.555,0.438,7.123,0.359,10.69c0.092-0.566,0.217-1.127,0.371-1.68c0.91-3.061,0-13.341,0-13.341
			s0.18-7.22-1.26-9.56c-1.441-2.34-4.512-15.7-4.512-15.7s0-4.51-2.52-6.85s-4.15-11.55-4.15-11.55
			c-1.48-2.297-2.121-5.035-1.809-7.75c0.539-4.511-3.061-9.381-3.061-9.381L631.5,616.82l-5.77-14.61l-3.25,8.48
			c0,0,0,1.069-0.109,2.739l2.639-6.89l5.771,14.61l6.16,19.489c0,0,3.609,4.87,3.068,9.38c-0.311,2.716,0.328,5.454,1.811,7.75
			c0,0,1.621,9.2,4.141,11.551c2.52,2.35,2.529,6.85,2.529,6.85s3.07,13.35,4.51,15.7C654.441,694.22,654.22,701.43,654.22,701.43z"
			/>
	</g>
	<path fill="#FFCDD3" d="M669.371,369.51l-1.361,6.58l0.08,2.93l0.061,2.17l-7.529,0.77l-0.84-1.56l0,0
		c-1.561-2.82-4.791-8.56-5.842-9.44c-1.389-1.17-3.869-19.48-0.889-18.4c1.818,0.705,3.311,2.058,4.189,3.8
		C657.24,356.36,672.031,358.1,669.371,369.51z"/>
	<path opacity="0.1" enable-background="new    " d="M668.15,381.23l-7.529,0.77l-0.84-1.56l0,0c2.09-2.376,5.566-2.949,8.309-1.37
		L668.15,381.23z"/>
	<path fill="#DCE6F2" d="M670.05,384.79l-9.93,2.3l-0.201-1.48l-0.57-4c0,0,3.932-5.24,9.611-1.31l0.49,2L670.05,384.79z"/>
	<path fill="#FFCDD3" d="M509.27,370.27l-10.59,5.68l-1-2c-1-2.11-2.51-5.29-2.92-6.43c-0.63-1.75-5.05-4-5.05-4
		c-11.09-10.6,2.12-19.71,2.12-19.71c7-14.07,14.79,4.78,14.79,4.78s1.08,9.93,0.32,10.6c-0.761,0.67-0.771,3.38-0.771,3.38
		c1.015,1.951,1.871,3.981,2.561,6.07C509.1,369.65,509.27,370.27,509.27,370.27z"/>
	<path opacity="0.1" enable-background="new    " d="M509.27,370.27l-10.59,5.68l-1-2c1.49-1.24,6.801-5.54,8.54-5.35
		c0.833,0.102,1.673,0.125,2.511,0.07C509.1,369.65,509.27,370.27,509.27,370.27z"/>
	<path fill="#DCE6F2" d="M510.35,373.51l-11.899,5.87l-0.24-2.56l-0.17-1.77c0,0,6.9-5.91,8.94-5.69c1.03,0.151,2.078,0.151,3.109,0
		l0.13,2.14L510.35,373.51z"/>
	<path fill="#FFCDD3" d="M640.509,413.29c0,0-51.92,5.86-42.209,2.71c6.75-2.2,9.43-6.49,10-11.26c0.449-4-0.57-8.3-1.939-12
		c-1.227-3.276-2.781-6.419-4.641-9.38c0,0,39.689-21.83,31.75-2c-1.225,3-1.984,6.17-2.25,9.4c-0.252,3.205,0.088,6.428,1,9.51
		C633.722,405.295,636.593,409.803,640.509,413.29z"/>
	<path opacity="0.1" enable-background="new    " d="M633.47,381.37c-1.225,3-1.984,6.17-2.25,9.4c-3.74,3.14-7.84,2.93-13.1,2.93
		c-4,0-8.521,1-11.76-1c-1.227-3.276-2.781-6.419-4.641-9.38C601.72,383.32,641.41,361.51,633.47,381.37z"/>
	<circle fill="#FFCDD3" cx="617.41" cy="373.61" r="21.47"/>
	<path opacity="0.1" enable-background="new    " d="M640.509,413.29c0,0-51.92,5.86-42.209,2.71c6.75-2.2,9.43-6.49,10-11.26
		c2.58-2.8,7.77-4.82,11.109-5.891c3.045-1.023,6.334-1.075,9.41-0.149c1.211,0.358,2.363,0.891,3.42,1.58
		C633.738,405.299,636.601,409.803,640.509,413.29z"/>
	<path opacity="0.1" enable-background="new    " d="M670.05,384.79l-9.93,2.3l-0.201-1.48c2.174-2.984,5.984-4.288,9.531-3.26
		L670.05,384.79z"/>
	<path opacity="0.1" enable-background="new    " d="M510.35,373.51l-11.899,5.87l-0.24-2.56c3.861-2.071,7.872-3.85,12-5.32
		L510.35,373.51z"/>
	<path opacity="0.1" enable-background="new    " d="M661.041,544.1c-20.1,3.181-48.721,7.311-53.26,5.931
		c-3.762-1.15-15.791-1-26.262-0.67c0.092-5.24,0.182-8.71,0.182-8.71l77.93-8.141C659.748,536.408,660.22,540.287,661.041,544.1z"
		/>
	<path fill="#656691" d="M681.089,539.38c0,0-66.199,11.37-73.309,9.2c-7.111-2.17-43.58,0.18-43.58,0.18
		c-16.41,11-9.561-5.229-9.561-5.229s-1.439-8.48,0.539-15.33c1.346-5.024,2.27-10.152,2.762-15.33c0,0-0.361-10.83,1.619-13.351
		c1.98-2.52,4.33-20.569,4.33-20.569s1.811-12.26,1.629-15c0.008-3.434,0.189-6.864,0.541-10.28l2.34-12.63
		c-13.529-1.8-54.66-27.06-54.66-27.06c-2-8.471-17.311-28.32-17.311-28.32c-0.223-1.669-0.648-3.305-1.27-4.87
		c-1.08-2.88,15.16-8.65,15.16-8.65s12.08,14.79,14.609,18.76c2.53,3.97,11.181,11.36,11.181,11.36c1.355-0.139,2.725,0.039,4,0.521
		l0.209,0.06l0,0c2.904,1.148,5.625,2.712,8.08,4.641c4.066-0.099,8.012,1.39,11,4.149c0,0,7.4-1.08,8.66,0.18
		c1.26,1.261,7.58,0,7.58,0s6.311-13.35,10.459-9.47c4.15,3.88,21.75,3.7,21.75,3.7c2.352-3.12,8.061-5.36,11.631-6.51
		c3.047-1.02,6.332-1.071,9.41-0.15c1.33,0.381,2.584,0.986,3.709,1.79l10.682,10.46c0,0,3.068-4,2.709-4.87s3.609-1.62,3.609-1.62
		s5.23-1.63,7.211-2.17s3.801,1.61,4,1.8c-0.061-0.229-1.42-4.6-0.891-7.93c0.531-3.33-2.17-6.5-2.17-6.5
		c6.32-15.51,20.57-2.52,20.57-2.52s1.621,8.48,0.18,11.72c-1.439,3.24,1.441,10.11,1.08,11.91c-0.359,1.8,0.721,4.87,0.721,8.3
		s-1.801,9.92-2.891,12.8s-9.74,9.38-9.74,9.38s-0.539,10.29-4.33,16.24c-3.789,5.95-1.549,26.34-1.549,26.34s3.609,15.91,8.15,21
		C674.48,510.6,681.089,539.38,681.089,539.38z"/>
	<path opacity="0.1" enable-background="new    " d="M584.589,420.69c0,0-2-5.95-3.789-6.49c-1.795-0.666-3.541-1.451-5.23-2.351
		l1.16-2.22c0,0,6.77,1.86,7.859,3.84C585.679,415.45,584.589,420.69,584.589,420.69z"/>
	<path opacity="0.1" enable-background="new    " d="M548.33,407.51c-0.359,1.8-16.419,3.431-16.419,3.431l8.121-8.141l0,0
		l0.199,0.07l0,0C543.14,404.017,545.869,405.58,548.33,407.51z"/>
	<circle fill="#575988" cx="501.87" cy="382.76" r="1.44"/>
	<circle fill="#575988" cx="503.72" cy="385.65" r="1.44"/>
	<circle fill="#575988" cx="505.53" cy="388.31" r="1.44"/>
	<circle fill="#575988" cx="507.42" cy="391.2" r="1.44"/>
	<circle fill="#575988" cx="677.46" cy="391.04" r="1.17"/>
	<circle fill="#575988" cx="677.64" cy="393.7" r="1.17"/>
	<circle fill="#575988" cx="677.8" cy="396.36" r="1.17"/>
	<path opacity="0.1" enable-background="new    " d="M584.679,469.57c-0.17-0.21,40.49,51.14,72.061,21.47
		C656.74,491.04,606.861,497.8,584.679,469.57z"/>
	<path opacity="0.1" enable-background="new    " d="M561.32,496.27c0,0,24.33,0.66,26.871,7.66v7.29
		c-1.406,0.782-3.115,0.782-4.521,0c-2.449-1.33-17.17-8.8-22.35-5.21V496.27z"/>
	<path fill="#656691" d="M561.769,496.27c0,0,23.271,0.631,25.701,7.311v6.93c-1.348,0.748-2.984,0.748-4.33,0
		c-2.34-1.26-16.41-8.39-21.371-5V496.27z"/>
	<path opacity="0.1" enable-background="new    " d="M574.599,443.43c2.488,5.754,5.652,11.188,9.432,16.19
		c4.119,5.527,9.111,10.348,14.779,14.27C598.81,473.89,575,446.78,574.599,443.43z"/>
	<path opacity="0.1" enable-background="new    " d="M566.64,415.16c0,0,4.061,17.52,14.52,23.479L566.64,415.16z"/>
	<path opacity="0.1" enable-background="new    " d="M560.41,416.93c-0.1-0.319-3.6,13.86,13.49,21.71
		C573.941,438.64,566.64,436.17,560.41,416.93z"/>
	<path opacity="0.1" enable-background="new    " d="M666.66,405.18c-0.27,0,8.439,5.54,10.801,8.11
		C677.46,413.29,671.8,404.82,666.66,405.18z"/>
	<path fill="#2D293D" d="M611.611,393.07c0.172,1.145,0.771,2.181,1.68,2.9c0.625,0.297,1.307,0.451,2,0.45
		c6.549,0.4,13.359,0.69,19.41-1.83c1.145-0.393,2.176-1.062,3-1.95c1.08-1.32,1.279-3.11,1.719-4.75c0.84-3.21,2.65-6.07,4-9.12
		c2.193-5.159,2.928-10.822,2.121-16.37c-0.158-1.703-0.717-3.344-1.631-4.79c-1.74-2.48-4.9-3.48-7.199-5.45
		c-2.301-1.97-3.771-5-6.451-6.48c-2.42-1.34-5.369-1.18-8.1-0.72c-5.389,0.903-10.557,2.831-15.219,5.68
		c-1.551,0.95-3.262,2.05-5,1.72c-1.57-0.3-2.711-1.62-3.721-2.85c-1.275,2.943-1.824,6.15-1.6,9.35c0.08,0.467,0.08,0.944,0,1.41
		c-0.227,0.561-0.566,1.068-1,1.49c-1.621,1.87-2.631,4.84-1,6.73c0.689,0.83,1.76,1.28,2.439,2.12c1.211,1.51,0.801,3.67,0.77,5.61
		c-0.068,0.67,0.102,1.343,0.48,1.9c0.711,0.66,1.717,0.898,2.65,0.63c0.914-0.272,1.871-0.364,2.82-0.27
		c1.008,0.331,1.873,0.999,2.449,1.89C609.169,384.21,610.339,388.44,611.611,393.07z"/>
	<g opacity="0.1">
		<path d="M638.39,390.98c-0.816,0.908-1.848,1.596-3,2c-6,2.52-12.859,2.23-19.41,1.82c-0.693,0.011-1.379-0.143-2-0.45
			c-0.91-0.717-1.51-1.754-1.68-2.9c-1.27-4.62-2.439-8.85-5.471-12.69c-0.576-0.892-1.441-1.559-2.449-1.89
			c-0.949-0.099-1.908-0.007-2.82,0.27c-0.924,0.253-1.912,0.016-2.619-0.63c-0.381-0.56-0.551-1.236-0.48-1.91
			c0-1.93,0.439-4.1-0.77-5.6c-0.682-0.85-1.74-1.29-2.441-2.12c-0.918-1.251-1.078-2.905-0.42-4.31
			c-1.139,1.82-1.639,4.16-0.299,5.75c0.689,0.83,1.76,1.28,2.439,2.12c1.209,1.51,0.799,3.67,0.77,5.61
			c-0.068,0.67,0.102,1.343,0.48,1.9c0.711,0.66,1.717,0.898,2.65,0.63c0.912-0.272,1.871-0.364,2.82-0.27
			c1.008,0.331,1.873,0.998,2.449,1.89c3,3.84,4.199,8.07,5.471,12.7c0.014,1.873,1.543,3.378,3.414,3.364
			c0.096,0,0.191-0.005,0.285-0.014c6.551,0.4,13.359,0.69,19.41-1.83c1.145-0.393,2.176-1.062,3-1.95
			c0.408-0.522,0.723-1.111,0.93-1.74C638.568,390.818,638.482,390.902,638.39,390.98z"/>
		<path d="M596.621,359.7c0.293-0.309,0.52-0.677,0.66-1.08c0.08-0.467,0.08-0.943,0-1.41c-0.186-2.631,0.154-5.272,1-7.77
			l-0.121-0.14c-1.281,2.942-1.83,6.15-1.6,9.35C596.611,358.998,596.63,359.349,596.621,359.7z"/>
	</g>
	<path opacity="0.1" enable-background="new    " d="M607.781,406.08c0,0,26.818,3.55,29.229-0.48"/>
	<path opacity="0.1" enable-background="new    " d="M659.941,394.98c0,0,14.889,0,18.17,5.61"/>
	<path fill="#510FA8" d="M980.679,381.51c0,0,1.861,2.43-0.859,6.11c-2.721,3.68-5,6.79-4.061,9.08c0,0,4.111-6.83,7.451-6.93
		S984.361,385.57,980.679,381.51z"/>
	<path opacity="0.1" enable-background="new    " d="M980.679,381.51c0.16,0.236,0.287,0.492,0.381,0.76c3.26,3.84,5,7.41,1.859,7.5
		c-2.92,0.09-6.42,5.31-7.26,6.63c0,0.1,0.061,0.199,0.1,0.3c0.041,0.1,4.111-6.83,7.451-6.93S984.361,385.57,980.679,381.51z"/>
	<path fill="#FFD037" d="M984.14,384.56c0,0.86-0.09,1.56-0.211,1.56c-0.119,0-0.219-0.7-0.219-1.56s0.119-0.45,0.24-0.45
		C984.07,384.11,984.14,383.71,984.14,384.56z"/>
	<path fill="#FFD037" d="M985.33,385.59c-0.75,0.41-1.41,0.66-1.459,0.55c-0.051-0.11,0.5-0.52,1.26-0.93s0.449-0.11,0.51,0
		S986.089,385.18,985.33,385.59z"/>
	<path fill="#510FA8" d="M970.839,381.51c0,0-1.869,2.43,0.861,6.11c2.729,3.68,5,6.79,4.059,9.08c0,0-4.109-6.83-7.459-6.93
		S967.16,385.57,970.839,381.51z"/>
	<path opacity="0.1" enable-background="new    " d="M970.839,381.51c-0.164,0.234-0.295,0.49-0.389,0.76
		c-3.262,3.84-5,7.41-1.861,7.5c2.92,0.09,6.43,5.31,7.271,6.63c0,0.1-0.061,0.199-0.102,0.3c-0.039,0.1-4.109-6.83-7.459-6.93
		S967.16,385.57,970.839,381.51z"/>
	<path fill="#FFD037" d="M967.371,384.56c0,0.86,0.1,1.56,0.219,1.56c0.201-0.494,0.273-1.031,0.211-1.56
		c0-0.85-0.121-0.45-0.24-0.45C967.439,384.11,967.371,383.71,967.371,384.56z"/>
	<path fill="#FFD037" d="M966.179,385.59c0.76,0.41,1.41,0.66,1.471,0.55c0.061-0.11-0.51-0.52-1.26-0.93s-0.461-0.11-0.52,0
		C965.81,385.32,965.429,385.18,966.179,385.59z"/>
	<path fill="#A8A8A8" d="M967.939,396.33c0,0,5.211-0.16,6.781-1.28c1.57-1.12,8-2.45,8.41-0.66c0.41,1.79,7.83,8.919,2,9
		s-13.67-0.909-15.24-1.87C968.32,400.56,967.939,396.33,967.939,396.33z"/>
	<path opacity="0.2" enable-background="new    " d="M985.201,402.74c-5.881,0-13.67-0.92-15.23-1.87
		c-1.201-0.73-1.67-3.34-1.83-4.54h-0.201c0,0,0.33,4.21,1.9,5.16s9.35,1.92,15.24,1.87c1.701,0,2.281-0.62,2.25-1.511
		C987.111,402.39,986.47,402.73,985.201,402.74z"/>
</g>
<g id="Layer_1">
	<g>
		<circle fill="#14B6E7" cx="800.786" cy="200.64" r="16"/>
		<path fill="#FFFFFF" d="M797.565,198.167c0.688-1.227,1.392-2.446,2.109-3.656c2.104-3.533,7.725-3.9,8.03-3.68l-0.003,0.006
			l0.004-0.004c0.307,0.22,1.859,5.75-0.688,8.962c-0.867,1.091-1.748,2.171-2.642,3.241c0.931,1.461,1.563,3.931-0.625,7.41
			c-0.104,0.164-0.3,0.299-0.315-0.041c-0.033-0.83-0.322-2.478-1.902-4.018l-0.1,0.118c-0.485,0.584-0.89,0.505-1.557,0.024
			l-0.053-0.039c-0.078,0.293-0.205,0.57-0.377,0.819c-0.02,0.028-0.042,0.054-0.062,0.082c-1.48,2.083-3.567,3.108-4.705,2.286
			c-1.139-0.82-0.9-3.178,0.518-5.307c0.02-0.029,0.035-0.06,0.055-0.09c0.176-0.252,0.385-0.465,0.62-0.634h-0.001
			c-0.667-0.481-0.875-0.843-0.501-1.507l0.054-0.096c-1.953-0.953-3.57-0.67-4.353-0.424c-0.325,0.104-0.267-0.133-0.146-0.289
			C793.397,198.11,795.875,197.811,797.565,198.167L797.565,198.167z M796.518,204.115c-0.094,0.087-0.18,0.184-0.254,0.289
			c-0.014,0.021-0.024,0.041-0.037,0.061c-1,1.465-1.176,3.081-0.383,3.64c0.793,0.558,2.254-0.151,3.297-1.586
			c0.015-0.021,0.031-0.037,0.045-0.058c0.068-0.096,0.125-0.198,0.173-0.303l-1.483-1.067l-1.355-0.976H796.518z M801.451,195.344
			c-0.722,1.044-0.478,2.473,0.549,3.219c1.007,0.724,2.41,0.493,3.134-0.514c0.01-0.015,0.02-0.029,0.03-0.044
			c0.723-1.044,0.478-2.475-0.55-3.22c-1.008-0.723-2.41-0.492-3.133,0.516C801.471,195.315,801.46,195.33,801.451,195.344z"/>
	</g>
	<g>
		<circle fill="#F7931A" cx="721.941" cy="396.33" r="16"/>
		<path fill="#FFFFFF" d="M729.13,394.35c0.314-2.096-1.283-3.223-3.465-3.975l0.707-2.84l-1.727-0.43l-0.691,2.765
			c-0.453-0.114-0.92-0.22-1.385-0.326l0.695-2.783l-1.728-0.431l-0.708,2.839c-0.376-0.086-0.746-0.17-1.104-0.26l0.002-0.009
			l-2.385-0.595l-0.46,1.846c0,0,1.283,0.294,1.257,0.312c0.699,0.175,0.825,0.638,0.805,1.006l-0.807,3.235
			c0.049,0.012,0.11,0.03,0.18,0.057l-0.183-0.045l-1.13,4.532c-0.086,0.212-0.303,0.531-0.793,0.41
			c0.018,0.025-1.256-0.312-1.256-0.312l-0.857,1.978l2.25,0.562c0.418,0.104,0.827,0.215,1.23,0.317l-0.715,2.872l1.727,0.43
			l0.708-2.84c0.472,0.127,0.931,0.245,1.378,0.357l-0.706,2.828l1.728,0.43l0.716-2.866c2.948,0.558,5.163,0.333,6.097-2.333
			c0.752-2.146-0.037-3.385-1.588-4.191C728.052,396.628,728.904,395.885,729.13,394.35z M725.179,399.889
			c-0.531,2.146-4.146,0.985-5.318,0.694l0.949-3.805C721.982,397.071,725.74,397.65,725.179,399.889z M725.714,394.319
			c-0.486,1.953-3.494,0.96-4.469,0.717l0.859-3.45C723.08,391.829,726.224,392.282,725.714,394.319z"/>
	</g>
	<g>
		<circle fill="#627EEA" cx="311.923" cy="425.479" r="16"/>
		<g>
			<path fill="#FFFFFF" fill-opacity="0.602" d="M312.421,413.479v8.87l7.497,3.35L312.421,413.479z"/>
			<path fill="#FFFFFF" d="M312.421,413.479l-7.498,12.22l7.498-3.35V413.479z"/>
			<path fill="#FFFFFF" fill-opacity="0.602" d="M312.421,431.447v6.027l7.502-10.379L312.421,431.447z"/>
			<path fill="#FFFFFF" d="M312.421,437.475v-6.028l-7.498-4.351L312.421,437.475z"/>
			<path fill="#FFFFFF" fill-opacity="0.2" d="M312.421,430.053l7.497-4.354l-7.497-3.348V430.053z"/>
			<path fill="#FFFFFF" fill-opacity="0.602" d="M304.923,425.699l7.498,4.354v-7.701L304.923,425.699z"/>
		</g>
	</g>
</g>
</svg>
